<?xml version="1.0" encoding="UTF-8"?>
<!DOCTYPE svg PUBLIC "-//W3C//DTD SVG 1.1//EN" "http://www.w3.org/Graphics/SVG/1.1/DTD/svg11.dtd">
<!-- Creator: CorelDRAW 2018 (评估版) -->
<svg xmlns="http://www.w3.org/2000/svg" xml:space="preserve" width="300px" height="336px" version="1.1" style="shape-rendering:geometricPrecision; text-rendering:geometricPrecision; image-rendering:optimizeQuality; fill-rule:evenodd; clip-rule:evenodd"
viewBox="0 0 223.1 249.59"
 xmlns:xlink="http://www.w3.org/1999/xlink">
 <defs>
  <style type="text/css">
   <![CDATA[
    .fil1 {fill:#FEFEFE}
    .fil2 {fill:#A0C4E3}
    .fil4 {fill:#6BABD4}
    .fil3 {fill:#358EC7}
    .fil0 {fill:#0E77B9}
   ]]>
  </style>
 </defs>
 <g id="图层_x0020_1">
  <metadata id="CorelCorpID_0Corel-Layer"/>
  <path class="fil0" d="M53.91 180.12c-0.98,-1.36 -1.31,-1.86 -3.67,-2.28 -3.14,-0.54 -7.92,0.59 -8.14,3.61 -0.07,0.95 0.43,1.78 1.03,2.01 1.05,0.41 1.17,-0.17 2.06,-0.56 1.45,-0.62 3.18,0.39 4.71,0.62 3.88,0.58 6.17,-2.64 5.79,11.69 -0.11,4.01 -1.92,1.31 -6.92,5.04 -4.03,3.01 -4.11,1.84 -6.94,-1.11 -3.38,-3.53 -7.82,-8.58 -10.78,-12.62 -6.24,-8.51 -12.46,-18.57 -16.12,-30.89 -2.23,-7.52 -2.75,-12.41 -2.77,-20.76 -0.02,-7.51 -0.34,-15.89 0.02,-23.38l85.92 -0.01 -0.07 122.19c-8.39,-1.2 -22.47,-8.28 -28.35,-12.17 -4.65,-3.07 -10.77,-6.78 -14.89,-10.56 -1.45,-1.34 -7.55,-6.21 -8.04,-7.03 2.48,-2.4 3.38,-0.31 6.61,-0.91 3.81,-0.71 1.43,2.69 5.51,2.26 0.67,-1.11 0.31,-1.58 1.39,-2.4 1.29,0.03 2,0.86 3.63,0.83 1.35,-0.04 2.22,-0.67 3.14,-1.23 3.06,-1.85 5.04,0.28 7.42,-1.05 -0.09,-1.17 -1.11,-1.35 -3.23,-2.31 -6.69,-3 -9.12,1.58 -9.45,-7.12 -0.06,-1.56 -0.02,-3.84 0.21,-5.33 0.35,-2.24 1.26,-2.21 3.46,-1.95 7.4,0.87 6.59,-1.24 9.46,-1.23 1.53,1.73 1.22,7.59 1.16,10.35 -0.04,1.76 -0.15,3.63 -0.49,5.29 -0.42,2.09 -2.03,2.62 -1.28,4.25 1.2,1.25 5.69,0.7 7.96,0.87 2.06,0.14 6.41,0.98 6.86,-1.24 -0.56,-0.42 -1.55,-0.57 -2.29,-0.92 -4.92,-2.26 -7.63,-8.85 -6.27,-14.09 1.54,-5.97 6.74,-5.2 10.13,-8.19 0.52,-0.46 2.71,-2.32 1.81,-3.55 -1.75,-1.77 -5.52,1.44 -6.46,2.1 -1,0.7 -2.01,1.39 -3.49,0.49 -2.29,-1.4 0.02,-8.05 0.75,-10.79 0.25,-0.97 0.81,-2.85 0.81,-3.81 0.01,-1.33 -0.93,-2.43 -2.14,-1.91 -0.69,0.4 -0.93,3.06 -2.28,5.77 -0.8,1.6 -2,4.04 -4.55,3.02 -5.47,-2.19 -4.09,-7.88 -8.6,-6.96 -0.42,1.88 1.26,2.3 1.46,3.81 0.22,1.64 -1.73,2.34 -3.4,2.03 -3.01,-0.56 -3.44,-3.83 -4.42,-6.63 -1.43,-4.07 -4.28,-2.84 -5.01,-2.86 -1.14,-0.03 -0.6,-0.59 -1.88,-0.77 -2.38,-0.33 -5.31,3.1 -5.81,4.78 -1.57,-0.68 -1.6,-1.94 -3.3,-2.63 -1.32,0.21 -1.51,1.16 -2.86,-0.29 -0.82,-0.87 -0.66,-1.97 -1.8,-2.2 -0.82,1.6 -0.05,1.86 -0.06,3.33 -1.45,0.62 -2.64,0.67 -4,1.51 -3.17,1.97 -2.66,6.38 -0.95,7.15 4.88,2.19 4.83,-2.63 5.45,-4.51 0.35,-1.07 1.38,-2.53 2.63,-2.58 2.85,-0.11 2.46,4.92 6.57,2.42 -0.2,-1.99 0.27,-2.77 1.68,-3.63 5,-3.02 5.2,6.3 5.44,9.85 -3.45,-0.18 -5.67,-2.48 -7.22,-3.57 -0.1,1.38 0.78,1.77 0.95,2.77 -2.15,1.09 -4.96,-0.56 -7.25,-0.47 0.58,2.46 5.1,2.17 7.15,2.08 2.29,-0.11 2.06,-0.3 3.4,0.85 0.87,0.76 1.34,1.17 2.76,1.62 0.34,2.3 0.61,4.12 -2.15,3.91zm38.42 -13.18c-2.36,1.52 -1.44,4.55 -4.4,5.03 -1.72,0.28 -3.19,-0.56 -4.54,-0.23 -1.35,0.34 -1.53,1.88 -0.34,2.68 2.38,1.6 5.62,0.75 6.94,-0.82 0.73,-0.87 3.27,-4.97 2.34,-6.66zm18.92 13.39c0.18,-5.16 -1.06,-8.85 1.79,-8.39 0.64,2.74 -0.32,7.81 0.53,8.43 0.28,0.21 4.14,0.59 5.8,2.91 2.25,3.13 4.88,10.89 3.08,13.55 -2.04,0.08 -1.32,-1.64 -1.7,-4.39 -0.22,-1.64 -0.55,-3.1 -1.08,-4.64 -0.99,-2.86 -2.96,-4.94 -6.37,-5.39 0.11,10.62 0.79,13.59 5.2,21.92 1.23,2.31 3.86,4.57 2.71,5.75 -0.55,0.57 -0.88,0.39 -1.79,-0.7 -3.46,-4.14 -5.6,-8.45 -6.87,-14.02 -0.04,0.05 -0.08,0.12 -0.11,0.16l-0.45 1c-0.85,2.65 -1.84,5.16 -3.24,7.53 -0.93,1.57 -2.66,4.04 -3.87,5.31 -0.8,0.85 -1.42,1.09 -1.96,0.42 -0.6,-0.92 0.64,-2.01 1.11,-2.65 6.34,-8.67 7.37,-13.27 7.23,-24.59 -5.04,1.28 -6.45,5.62 -6.98,10.14 -0.17,1.42 -0.01,4.16 -1.65,3.49 -1.18,-0.73 -0.26,-4.63 -0.06,-5.66 0.88,-4.74 2.62,-8.91 8.68,-10.18zm-50.05 -7.07c2.34,0.14 2.57,1.08 4.52,-0.78 0.95,-0.92 2.05,-2.22 4.31,-1.77 1.57,0.31 3.04,1.47 3.6,2.59 1.6,3.17 -1.38,2.72 -2.11,3.32 0.32,2 3.41,0.87 4.04,3.44 -0.82,2.01 -3.1,2.05 -5.64,1.76 -3.62,-0.41 -2.06,-1.98 -2.8,-4.55 -2.25,-0.51 -5.77,5.25 -5.92,-4.01zm65.66 -61.67c1.54,-0.39 58.68,-0.05 63.16,-0.04 6.7,0.01 14.16,-0.28 20.76,0.05 0.35,1.88 0.1,22.05 0.1,25.8 0,9.55 0.21,14.44 -2.49,23.2 -2.02,6.6 -4.88,12.42 -8.02,17.9 -2,3.5 -6.48,9.98 -9.15,13.31 -2.44,3.05 -5.07,5.78 -7.75,8.53 -1.12,1.15 -2.12,2.06 -3.26,3.16 -1.12,1.08 -2.09,2.18 -3.28,3.14 -1.17,0.94 -2.32,1.98 -3.47,2.96 -7.65,6.53 -18.77,13.19 -27.75,17.42 -2.6,1.22 -16.26,6.74 -18.84,6.54l-0.01 -121.97zm-15.5 19.63c0.03,-1.02 -0.13,-3.87 0.26,-4.59 0.26,-0.49 0.99,-0.89 1.51,-0.42 0.64,0.56 0.41,3.99 0.42,4.87 4.22,1.57 6.69,2.9 8.84,7.44 0.63,1.32 1.13,2.66 0.4,3.84 -2.27,0.14 -1.12,-1.8 -3.8,-5.25 -1.25,-1.61 -2.72,-3.28 -5.45,-3.79l0.06 2.93c1.43,1.22 3.48,1.95 3.67,5.06 0.2,3.46 -1.27,4.21 -2.68,5.62 0.26,0.93 1.57,2.67 2.15,4.12 1.17,2.89 3.72,12.55 2.18,14.98 -2.12,0.13 -1.84,-2.1 -2.09,-4.02 -0.61,-4.7 -1.29,-11 -4.55,-13.97 -5.69,4.29 -4.42,15.7 -4.89,17.03 -0.33,0.92 -0.13,0.47 -0.68,0.78 -3.28,1.52 -0.85,-11.4 0.72,-14.96 0.36,-0.84 0.7,-1.48 1.14,-2.07 0.51,-0.69 0.9,-0.98 1.3,-1.79 -0.6,-0.68 -0.85,-0.55 -1.44,-0.97 -1.27,-0.9 -1.75,-3.36 -1.49,-5.08 0.4,-2.65 2.14,-3.61 4.38,-4.56l0 -3.11c-2.63,0.66 -4.05,2.14 -5.24,3.62 -2.58,3.2 -2,5.03 -3.93,5.03 -0.7,-1.7 -0.27,-2.34 0.59,-3.78 2.04,-3.37 4.26,-5.9 8.62,-6.96zm-37.18 -24.15c-3.46,0.41 -2.36,-4.96 -1.77,-6.29l1.93 2.55c0.59,1.23 0.38,2.76 -0.16,3.74zm46.32 -5.77c0.65,0.32 1.17,0.69 1.18,1.46 0,0.44 -0.1,0.36 -0.2,0.62l-0.81 -0.05 -0.17 -2.03zm11.99 4.68c-0.45,0.87 -0.55,0.66 -1.86,1.15 -1.06,0.41 -0.98,0.73 -1.64,1.14 -1.62,1 -3.23,-1.35 -7.73,-3.26 -2.52,-1.07 -3.35,-0.73 -3.77,-2.13l7.36 1.98c2.27,0.76 3.48,1.33 5.71,1.06l1.93 0.06zm34.51 -3.44c0.46,-0.29 0.98,-0.18 1.71,-0.44 2.42,-0.87 0.71,-0.78 5.64,-2.13 0.4,-0.11 2.78,-1.55 3.59,0.61 -1.41,1.36 -3.48,0.82 -4.6,0.64 0.52,1.38 1.15,6.85 0.16,8.14 -1.34,0.37 -2.89,-0.86 -3.97,-1.48 -1.51,-0.86 -2.96,-1.3 -3.37,-2.19 1.53,0.26 3.78,1.58 5.87,1.12l0.52 -5.16c-1.96,0.5 -4.62,3.34 -5.55,0.89zm2.4 -3.84c4.61,-0.2 3.02,-1.45 4.82,-0.75 -0.03,1.29 -0.78,1.74 -1.86,2.06 -1.15,-0.18 -0.41,-0.19 -0.84,-0.33 -1.18,-0.4 -1.65,0.26 -2.12,-0.98zm-49.75 0.12c-0.23,-0.74 -0.44,-1.3 -0.36,-2.11 0.82,0.12 1.21,0.36 1.57,0.91 1.22,1.86 0.12,2.42 -0.68,2.06 -0.68,-0.32 -0.23,0.1 -0.53,-0.86zm-14.41 -0.73c0.36,1.2 -0.48,1.57 -0.89,2.15 0.63,1.46 3.62,4.81 4.84,5.39 1.03,0.48 1.38,0.25 2.06,1.04 -0.42,0.26 -2.49,0.65 -3.12,0.7 -3.15,0.26 -3.78,-4.04 -5.25,-5.7 -1.39,1.17 -4.13,5.58 -8.52,5.26 1.84,-1.3 1.3,0.38 4.35,-3.06 0.98,-1.11 2.53,-2.65 2.96,-4.31 -0.56,-0.92 -1.52,-1.92 -1.82,-2.88 1.56,0.42 1.66,1.07 2.54,1.7 0.52,-0.73 0.57,-1.03 0.94,-1.98 0.96,0.09 1.68,0.91 1.91,1.69zm66.35 -10.54c0.91,-0.49 1.21,-1.17 1.73,-1.94 0.96,-1.44 1.25,-1.16 0.77,-3.03 1.26,0.26 1.93,0.8 2.2,2.07 -0.41,0.73 -1,1.19 -1.77,1.69 -1.24,0.81 -1.47,0.59 -1.99,1.57 1.7,-0.22 5.83,-3.12 8.69,-2.48 0.2,1.16 -0.56,1.65 -1.08,2.18 -1.15,1.2 -3.45,4.42 -4.09,6.09 1.2,-0.23 4.02,-1.48 4.88,-0.43 1.28,1.13 -2.26,2.58 -3.48,2.89 -0.92,0.23 -1.91,0.31 -2.86,0.58 -0.84,0.23 -1.9,0.7 -2.69,0.31l7.02 -3.14c-1.18,-0.25 0.95,-0.02 -0.33,-0.06 -0.83,-0.02 -3.29,0.87 -3.86,1.2 -1.58,0.92 -0.93,0.11 -2.46,0.51 -0.45,0.12 -1.46,0.62 -1.95,0.81 -4.61,1.76 -3.46,5.31 -6.35,4.92 -0.18,-1.24 0.53,-2.01 0.97,-2.73 0.42,-0.66 1.13,-1.76 1.7,-2.16 -0.38,1.13 -1.43,2.2 -1.81,3.54 3.34,-2.22 0.42,-1.66 6.98,-4.82 1.85,-0.9 0.23,-1.57 -0.83,-2.13 -0.75,0.6 -1.16,1.7 -2.42,1.67 0.44,-0.7 1.15,-1.21 1.37,-2.44 -0.68,-0.36 -0.94,0.14 -1.25,-0.42 -0.15,-0.25 -0.28,-1.33 -0.38,-1.71 -0.26,-1.01 -0.65,-2.13 -0.87,-3.05 0.89,0.05 1.81,1.87 2.37,2.91l0.83 1.2c1.45,-2.55 0.71,-2.14 0.28,-3.29l0.68 -0.31zm-50.33 3.92c0.26,-0.67 -0.16,-0.03 0.51,-0.54l4.23 -3.11c2.03,-1.35 3.98,-3.04 5.72,-2.68 0.33,1.4 -0.27,1.69 -0.92,2.44 -0.54,0.61 -0.86,1.31 -1.47,1.88 0.32,0.76 0.3,0.26 0.69,1.15 -0.5,1.16 -0.95,0.87 -1.7,1.6 1.48,-0.03 1.51,-0.45 2.69,0.29 0.07,1.14 -0.5,1.67 -0.94,2.62 -0.82,1.73 -0.93,7.33 -1.71,8.77 -1.21,0.02 -0.99,-0.17 -1.42,-1.09 -1.17,0.19 -0.22,0.47 -1.49,0.38l0.14 -2.81 -1.1 -0.32c0.18,-1.25 1.21,-2.05 0.86,-3.27 -2.61,2.48 0.16,5.05 -2.39,5.32 -0.75,-1.06 -0.94,-1.63 -0.45,-3.31 0.42,-1.41 0.57,-2.47 1.36,-2.89l0.37 0.75c0.92,-2.19 3.18,-3.56 4.08,-4.44 -0.74,0.04 -1.17,0.28 -1.74,0.04 1.75,-1.79 1.31,-0.89 1.26,-2.13 -0.07,-1.78 0.64,-1.02 1.23,-2.48 -2.61,0.88 -3.5,4.97 -7.81,3.83zm7.84 -3.97c0,-0.03 -0.04,-0.09 -0.06,-0.07 -0.27,0.36 0.07,0.09 0.08,0.09 0,0 -0.02,-0.01 -0.02,-0.02zm-3.14 8.25c-0.21,0.33 -0.44,0.55 -0.61,1.03 0.45,-0.36 0.66,0.24 0.61,-1.03zm-24.69 -2.85c0.06,0.02 0.11,0.08 0.15,0.1 0.46,0.26 0.65,0.59 1.59,0.07 0.85,-0.48 1.88,-1.59 3.6,-0.91 0.96,0.38 0.83,0.57 0.61,1.75l-2.05 0.23c-0.23,-0.4 -0.02,0.08 -0.15,-0.52 -0.17,-0.79 0.17,-0.25 -0.16,-0.82 -1.36,0.76 -0.72,1.24 -2.71,2.12 -1.03,0.46 -2.68,1.36 -3.56,1.36 -0.02,-0.07 -0.03,-0.15 -0.04,-0.2 0,-0.05 -0.02,-0.14 -0.02,-0.2l0.03 -0.37c0.11,-0.44 2.28,-2.26 2.71,-2.61zm65.53 1.11c-0.56,-0.99 -0.91,-2.13 -0.97,-3.68 0.62,0.27 0.14,-0.02 0.69,0.39 1.1,0.85 2.56,3.05 0.28,3.29zm-92.99 0.79c4.25,-0.37 4.98,-0.86 6.04,-4.76 0.27,-0.99 0.62,-3.69 1.96,-2.94 1.23,0.69 0.62,2.55 0.52,3.86 1.89,-0.14 1.73,-2.11 3.6,-1.29 0.44,1.8 -2.11,2.19 -3.86,3.07 -0.81,0.4 -3.25,2.21 -3.22,3.12 0.08,2.54 6.73,-4.98 7.36,-1.79 0.13,0.67 0.02,-0.25 0.05,0.44 0,0.18 -0.07,0.72 -0.1,0.92 -0.28,1.66 -1.03,2.37 -1.55,4.21 -0.55,2.01 -0.59,4.61 -1.26,6.31 -2.07,0 -1.98,-2.31 -3.8,-2.4 -1.27,1.09 -0.12,2.91 -2.33,2.78l0 -1.61c-0.79,-0.37 -0.61,-0.02 -1.19,-0.58 0.26,-1.01 0.02,-0.37 0.9,-0.89 -0.44,-0.95 -1.12,-1.43 0.43,-1.92 0.83,-0.27 1.83,-0.49 2.76,-0.36 -0.03,0.2 -1.27,2.01 1.57,2.28 1.33,-1.25 1.03,-1.18 1.36,-3.39 0.2,-1.39 0.75,-2.57 0.53,-4.17 -0.91,-0.31 -1.64,0.03 -2.29,0.62 -0.77,0.68 -0.67,1.18 -0.77,2.46 -0.69,0.32 -1.34,0.29 -2.02,0.72 -0.54,0.33 -0.79,0.79 -1.46,1.05 -1.59,0.61 -3.16,0.36 -3.44,-1.21 1.23,-0.95 3.84,-0.64 3.82,-2.55 -1.45,-1.13 -1,0.16 -2.41,-0.1 -0.98,-0.19 -1.37,-0.8 -1.2,-1.88zm70.28 -0.76c1.08,0.19 2.41,0.63 3.59,0.09 0.5,-0.23 1.06,-1.3 1.54,-2.12 0.48,-0.82 1.95,-4.64 2.27,-4.96 3.04,1.4 -0.03,3.96 -0.53,6.35 1.31,-0.12 2.28,-0.89 3.67,-0.04 -0.94,2.73 -5.04,0.36 -6.74,5.74 0.75,0.82 2.29,2.13 3.17,2.72 2.04,1.36 3.46,0.53 4.8,1.18 -0.35,0.56 -0.62,0.45 -1.28,0.79 -0.81,0.42 -0.61,0.57 -1.11,0.95 -1.04,0.81 -2.1,0.44 -2.88,-0.39 -1.33,-1.39 -1.47,-3.14 -3.23,-4.51 -0.84,0.71 -1.34,1.5 -2.16,2.36 -0.87,0.91 -1.26,1.43 -2.45,2.15 -1.91,1.17 -3.46,2.9 -6.23,3.05 0.24,-0.27 0.09,-0.12 0.41,-0.36l1.28 -0.82c2.48,-1.78 4.36,-3.93 6.08,-6.53 0.74,-1.12 1.47,-1.7 2.03,-3.12 -0.64,-0.95 -1.67,-1.05 -2.23,-2.53zm-97.82 -3.81c4.49,-0.35 3.96,0.03 7.51,-1.93 0.95,-0.53 5.22,-4.2 4.61,0.32 -2.32,0.68 -3.39,1.6 -5.06,2.65 0.17,1.05 0.24,0.33 0.54,1.32 0.22,0.73 0,0.81 0.34,1.53 2.17,1.02 3.47,-3.34 6.14,-0.7 0.44,0.89 -2.28,4.81 -3.21,7.18 -1.88,4.82 -1.19,6.05 -4.57,5.91 -0.58,-1.84 -0.73,-1.58 -1.29,-1.83 -1.17,0.57 -0.49,0.73 -1.18,1.67 -1.23,0.25 -3,0.19 -3.91,-0.37 0.01,-1.18 0.16,-1.03 1.17,-1.4 5.95,-2.2 3.11,-0.24 5.75,-0.7 0.49,-0.75 0.4,-1.52 0.63,-2.58 0.15,-0.69 0.65,-1.64 0.96,-2.23 0.54,-0.99 2.22,-3.16 1.91,-3.95 -0.99,-0.23 -2.84,1.3 -3.38,1.8 -1.34,1.27 -0.58,2.77 -1.95,3.21 -0.68,-0.56 -0.58,-0.88 -0.75,-1.88 -2.86,0.55 -3.42,3.78 -3.86,4.49 -0.31,0.51 -0.11,0.36 -0.66,0.57 -0.49,-0.75 -0.27,-1.41 -0.37,-2.24 -1.77,-0.24 -3.27,3.68 -3.96,5.37 -1.49,0.21 -1.84,-0.15 -2.75,-0.7 -0.21,-4.91 1.34,-2.94 1.8,-2.72 1.28,-0.56 3.41,-2.87 5.15,-4.28 1.45,-1.18 0.89,-1.35 0.94,-3.56 0.06,-2.29 1.36,-1.3 1.75,-2.96 -0.85,-0.83 -2.11,-0.72 -2.3,-1.99zm53.93 0.39c1.02,-0.4 1.96,-0.78 2.35,-1.74 0.54,-1.33 -0.25,-1.74 -0.49,-2.97 2.26,0.07 2.82,0.77 3.57,2l0.23 0.33c1.42,-0.19 3,-1.35 4.01,-0.15 -0.23,0.99 -0.45,0.42 -2.86,1.61 -0.87,0.43 -2.07,1.15 -2.47,0.47l-0.06 -0.19c-1.17,0.22 -3.24,1.25 -4.28,0.64zm33.38 -67.9c0,-0.52 -0.08,-1.5 0.19,-1.94 0.35,-0.58 0.94,-0.64 1.31,-0.03 0.27,0.44 0.19,3.54 0.19,4.27 -0.01,7.56 -1.21,13.44 4.06,18.97 1.46,-2.64 0.99,-10.68 0.99,-14.39 0,-4.61 -1.03,-7.39 1.02,-7.24 0.85,1.23 0.67,8.8 0.67,10.91 0.01,9.57 1.19,13.97 -8.41,13.66 -3.16,-0.1 -5.15,-0.22 -6.34,-3.63 -0.95,-2.72 -0.78,-13.85 -0.59,-17.76 0.07,-1.54 -0.23,-2.54 1.2,-2.75 1.63,1.57 -1.11,17.81 1.81,21.19 1.08,-1.61 2.27,-2.65 3.22,-4.76 1.04,-2.3 0.7,-4.63 0.71,-7.32l-0.03 -9.18zm21.58 -3.23c1.82,0.89 -0.5,2.51 4.36,2.55 4.15,0.03 3.22,-1.58 3.85,-3l1.02 0.01c0.67,1.32 0.13,2.91 -0.82,3.6 -2.31,1.67 -2.96,-0.46 -2.97,2.3 2.47,-0.03 7.01,-0.54 8,0.76 -0.4,1.31 -2.22,0.93 -3.81,0.93 -0.77,0 -1.53,0 -2.3,0 -1.35,-0.01 -1.77,-0.1 -1.89,0.44 -0.28,1.25 1.02,0.65 2.75,1 2.52,0.5 3.07,2.31 2.4,4.56 -0.52,1.74 -0.41,1.01 0.13,2.76 0.47,1.52 2.13,11.18 0.52,12.39 -1.37,-0.26 -1.01,-1.34 -1.06,-2.81 -0.18,-4.86 -0.44,-5.41 -1.35,-9.98 -3.14,0.54 -3.96,0.08 -3.4,2.72l1.45 0.09c0.07,-1.33 -0.24,-2.06 1.13,-2.18 0.9,1.13 0.8,4.09 0.36,5.77 -0.49,1.85 -2.08,2.39 -4.24,2.44 -2.1,0.05 -3.59,-0.92 -3.92,-2.73 -0.27,-1.41 -0.73,-4.86 1.17,-5.05 0.54,0.74 0.39,0.71 0.39,1.92l1.83 -0.22 -0.03 -2.11c-1.68,-0.29 -2.35,-0.27 -3.8,-0.7 -1.1,1.46 -1.11,4.32 -1.19,6.35 -0.14,3.49 0.54,5.73 -0.87,6.36 -1.56,-0.7 -1,-4.38 -0.92,-6.13 0.32,-6.89 1.72,-7.07 1.47,-9 -0.69,-5.37 3.49,-3.78 5.39,-4.76l0.05 -1.07c-1.88,0.01 -7.24,0.61 -7.83,-0.11 -0.84,-1.6 1.81,-1.4 3.12,-1.45 1.55,-0.05 3.07,-0.08 4.66,-0.17l0.01 -1.1c-1.22,-0.7 -2.77,-0.21 -3.74,-1.3 -0.72,-0.81 -1.28,-2.48 0.08,-3.08zm34.18 49.92c3.95,0.6 19.27,-0.56 21.37,0.28 0.18,1.57 0.46,10.09 0.13,11.22 -6.58,0.41 -14.35,0.07 -21.05,0.08 -4.93,0 -61.14,0.37 -63.15,-0.04l0.03 -11.27c1.11,-0.42 19.51,-0.31 21.86,-0.13l0 -10.66 -19.51 -0.01c-1.87,0 -2.18,0.29 -2.47,-0.38l-0.01 -7.55 78.04 -0.02c-0.18,-0.17 -0.13,-0.14 -0.43,-0.35l-1.11 -0.52c-0.51,-0.23 -0.89,-0.41 -1.4,-0.66 -4.14,-2.04 -9.44,-5.82 -12.97,-8.82 -6.33,-5.36 -16.15,-16.42 -18.24,-24.6l-58.21 -0.06 -0.09 64.95 -99.98 -0.05 0.02 -42.46c1.45,-0.88 3.02,-1.72 4.56,-2.71 0.84,-0.53 1.4,-0.86 2.2,-1.48 1.92,-1.5 3.62,-2.49 6.29,-4.71 1.39,-1.15 2.49,-2.23 3.76,-3.34 3.54,-3.09 11.48,-11.45 12.76,-16.1l139.6 -0.01c0.72,2.49 4.24,7.16 5.72,9.01 3.88,4.83 7.85,9.01 12.68,12.78 3.28,2.55 7.02,5.27 11.14,6.97l0 20.05 -21.54 0.03 0 10.56zm-152.45 -64.31c-1.41,8.44 -9.97,16.18 -16.5,21.37 -2.71,2.16 -6.54,4.84 -9.5,6.54 -6.25,3.59 -5.11,1.93 -5.11,5.54 0,7.18 -0.02,14.37 -0.04,21.56 -0.02,14.37 -0.06,28.74 -0.08,43.11 -0.02,10.61 -0.56,32.8 0.94,42.14 1.79,11.21 6.35,23.38 11.17,31.97 3.65,6.51 4.69,7.68 8.32,13.24 1.89,2.89 5.4,6.71 7.2,9.09 3.85,5.08 13.98,13.95 19.42,18.19 0.59,0.46 0.96,0.74 1.56,1.18 9.45,6.98 21.02,13.47 32.99,17.92 5.44,2.03 10.7,3.63 16.61,4.97 8.93,2.02 8.68,1.79 18.08,-0.57 16.53,-4.15 24.85,-8.16 38.43,-15.48 2.73,-1.47 10.05,-6.42 12.98,-8.58l5.93 -4.84c1.89,-1.54 1.76,-1.7 2.88,-2.62 3.59,-2.98 4.96,-4.72 8.05,-8.01 3.36,-3.56 6.45,-7.45 9.52,-11.81 5.35,-7.56 11.03,-18.42 14.05,-29.07 3.94,-13.89 3.68,-24.43 3.66,-39.37 -0.05,-28.62 -0.11,-57.23 -0.15,-85.85 -1.64,-0.88 -3.35,-1.75 -4.96,-2.76l-13.44 -9.71c-3.85,-3.64 -8.16,-7.82 -10.73,-12.67 -1.56,-2.95 -1.48,-4.21 -2.05,-5.47l-149.23 -0.01z"/>
  <path class="fil1" d="M172.04 66.59c0.55,2.16 -0.65,1.41 -0.41,2.49 2.07,0.92 2.23,-1.87 2.22,-3.64 -1.84,0.22 -3.16,0.35 -4.11,-0.89 -0.81,-1.06 -0.82,-2.97 -0.12,-4.19 1.39,-2.39 5.44,-1.95 6.38,1.37 0.92,3.22 0.01,6.78 -2.39,7.67 -4.61,1.72 -6.28,-4.19 -1.57,-2.81zm-7.31 -2.72c3.26,1.99 2.18,5.56 -1.31,5.79 -1.73,0.12 -3.27,-0.5 -3.73,-1.71 -0.68,-1.81 0.97,-2.66 1.7,-3.48 -0.52,-0.84 -1.85,-1.46 -1.64,-3.18 0.39,-2.98 5.2,-3 6.24,-1 0.91,1.76 -0.46,2.56 -0.92,3.11 -0.36,0.42 0,-0.2 -0.34,0.47zm-12.75 -3.53c0.78,-0.59 0.68,0.04 1.77,-0.72 0.45,-0.32 -0.04,-0.67 2.28,-0.43 0.04,1.9 0.01,3.83 0.01,5.73 0,6.12 0.61,2.75 1.34,4.36 -0.68,0.34 -4.68,0.34 -5.36,0 0.62,-1.41 1.37,1.08 1.34,-3.44 0,-1.5 0.13,-3.55 -0.12,-4.97l-0.96 -0.36c-0.04,-0.02 -0.12,-0.07 -0.15,-0.09 -0.03,-0.01 -0.11,-0.05 -0.15,-0.08zm29.22 3.13c5.95,-0.87 4.89,4.16 3.37,5.41 -2.91,2.37 -5.63,-0.25 -5.84,-3.72 -0.62,-10.39 9.84,-5.15 6.11,-3.08 -0.78,0.44 -1.85,0.18 -2.12,-0.46 -0.44,-1.06 0.49,-1 0.66,-2.23 -2.36,-0.15 -2.12,1.86 -2.18,4.08zm-101.34 -49.07c0.48,0.87 1.06,1.94 1.66,2.85 0.68,1.03 1.13,1.94 1.73,2.86l3.49 5.85 5.76 -0.44c1.23,2.33 5.39,7.81 4.89,8.9 -0.27,0.59 -1.9,2.09 -2.35,2.45 0.12,0.99 5.85,11.25 7.71,18.09 1.15,4.27 0.69,7.17 -0.33,11.35 -0.4,1.64 -0.94,3.33 -1.64,4.77 -0.65,1.34 -1.34,3.21 -2.72,3.82 -0.2,-0.23 -0.41,-0.38 -0.57,-0.91 -0.62,-2.12 0.84,-11 -7.67,-24.68l-4.63 -6.81c-2.44,0.89 -27.79,15.93 -31.6,18.32 -7.51,4.71 -17.62,9.2 -24.05,13.33 -1.86,1.18 -5.78,3.82 -8.35,4.33 -1.08,-2.88 -2.95,-4.79 -2.41,-7.29 0.26,-1.26 0.78,-1.26 1.73,-1.72 5.56,-2.68 20.99,-11.42 26.15,-14.45l12.84 -7.11c1.18,-0.6 1.37,-0.47 1.69,-1.74 0.93,-3.69 0.62,-1.96 5.07,-5.03l8.26 -5.26c1.33,-0.8 2.98,-1.83 4.05,-2.75 -0.4,-1.04 -2.72,-4.59 -3.44,-5.6 -0.83,-1.17 -1.09,-1.81 -1.8,-2.78 -4.57,-6.25 -3.06,-5.75 0.07,-7.42 1.67,-0.9 4.55,-3.06 6.46,-2.93zm46.69 44.1c3.31,0.67 19.75,-0.45 22.11,0.31 0.27,1.37 0.11,3.92 0.11,5.43 0,0.67 0.17,4.96 -0.23,5.31 -1.53,0.64 -18.22,0.04 -21.65,0.19l0.03 11.14 83.86 -0.16 -0.29 -11 -20.67 -0.04c-0.59,-0.16 -0.11,0.1 -0.48,-0.27l0 -10.56 21.54 -0.03 0 -20.05c-4.12,-1.7 -7.86,-4.42 -11.14,-6.97 -4.83,-3.77 -8.8,-7.95 -12.68,-12.78 -1.48,-1.85 -5,-6.52 -5.72,-9.01l-139.6 0.01c-1.28,4.65 -9.22,13.01 -12.76,16.1 -1.27,1.11 -2.37,2.19 -3.76,3.34 -2.67,2.22 -4.37,3.21 -6.29,4.71 -0.8,0.62 -1.36,0.95 -2.2,1.48 -1.54,0.99 -3.11,1.83 -4.56,2.71l-0.02 42.46 99.98 0.05 0.09 -64.95 58.21 0.06c2.09,8.18 11.91,19.24 18.24,24.6 3.53,3 8.83,6.78 12.97,8.82 0.51,0.25 0.89,0.43 1.4,0.66l1.11 0.52c0.3,0.21 0.25,0.18 0.43,0.35l-78.04 0.02 0.01 7.55z"/>
  <path class="fil1" d="M134.37 124.19l63.81 -0.03 0.03 5.27 -7.81 0.03c-0.03,2.19 -0.08,4.38 -0.09,6.56 -0.03,3.56 0.07,2.52 -1.79,4.48 -1,1.06 -2.84,0.64 -5.61,0.64 -2.06,0 -4.66,-0.14 -6.65,0.06l-0.06 9.7 -3.69 0.18c-0.1,1.28 5.81,25.89 6.88,30.65 0.64,2.86 2.1,7.78 2.33,10.44l-1.1 0.09c-0.84,-1.6 -2.06,-6.62 -2.68,-8.64 -0.87,-2.88 -1.69,-5.68 -2.58,-8.65l-5.36 -17.27 1.05 47.22c-1.69,0.05 -1.28,-0.35 -1.48,-2.13 -0.12,-1 -0.26,-2.04 -0.39,-3.05l-3.89 -30.49c-0.48,-3.8 -0.86,-8.84 -1.62,-12.36 -0.65,0.82 -11.51,27.5 -12.72,30.66l-3.13 7.64c-0.64,1.55 -0.21,1.88 -1.93,1.87l14.61 -45.58 -3.63 -0.08 -0.01 -10.07 -9.73 0c-1.54,0.01 -1.78,0.24 -2.6,-0.64 -1.88,-2 -1.55,-1.33 -1.6,-4.9 -0.02,-2.11 -0.08,-4.22 -0.09,-6.33 -8.79,-0.06 -8.4,0.74 -8.45,-1.68 -0.02,-1.19 -0.17,-2.42 -0.02,-3.59zm-7.5 109.37c2.58,0.2 16.24,-5.32 18.84,-6.54 8.98,-4.23 20.1,-10.89 27.75,-17.42 1.15,-0.98 2.3,-2.02 3.47,-2.96 1.19,-0.96 2.16,-2.06 3.28,-3.14 1.14,-1.1 2.14,-2.01 3.26,-3.16 2.68,-2.75 5.31,-5.48 7.75,-8.53 2.67,-3.33 7.15,-9.81 9.15,-13.31 3.14,-5.48 6,-11.3 8.02,-17.9 2.7,-8.76 2.49,-13.65 2.49,-23.2 0,-3.75 0.25,-23.92 -0.1,-25.8 -6.6,-0.33 -14.06,-0.04 -20.76,-0.05 -4.48,-0.01 -61.62,-0.35 -63.16,0.04l0.01 121.97z"/>
  <path class="fil1" d="M92.33 166.94c0.93,1.69 -1.61,5.79 -2.34,6.66 -1.32,1.57 -4.56,2.42 -6.94,0.82 -1.19,-0.8 -1.01,-2.34 0.34,-2.68 1.35,-0.33 2.82,0.51 4.54,0.23 2.96,-0.48 2.04,-3.51 4.4,-5.03zm-51.02 13.48c0.59,1.83 -0.27,2.49 -1.59,3.21 -4.71,2.56 -9.79,-3.81 -9.66,-5.58 0.17,-2.37 1.66,-1.26 -0.68,-3.61 -0.86,-0.87 -1.79,-1.84 -2.46,-3.05 -1.82,-3.32 -0.8,-6.4 1.88,-7.12 1.89,2.53 -0.79,4.21 0.68,5.95 0.48,0.57 3.47,1.95 4.46,2.86 2.67,2.44 0.62,2.99 2.04,5.3 1.27,2.07 2.74,1.47 5.33,2.04zm30.88 -22.42c-1.63,-0.74 -1.73,-0.16 -3,-0.45 -0.61,-0.14 -0.85,-0.24 -0.72,-1.05 0.1,-0.64 0.45,-0.79 0.74,-1 1.31,-0.93 4.2,0.46 5.4,0.99 0.96,0.43 5.07,1.9 2.6,2.94 -1.38,0.58 -3.89,-0.92 -5.02,-1.43zm19.98 -4.39c3.42,0.9 4.64,3.74 2.65,7.14 -1.51,2.57 -3.95,3.5 -4.62,4.11 -0.72,0.66 -0.39,1.02 -0.76,1.95 -1.48,0.29 -2.21,0.14 -3.02,-0.75 -0.04,-1.56 1.45,-2.24 2.31,-3.59 3.46,-5.38 -1.52,-6.01 -1,-8.29 0.34,-1.5 3.1,-0.93 4.44,-0.57zm-20.96 -7.96c0.79,-1.37 2.69,0.15 4.16,0.67 2.9,1.04 2.51,-0.84 2.15,-3.05 -0.38,-2.33 -1.75,-9.24 1.22,-9.47 0.34,1.53 0.01,3.19 0.07,4.75 0.07,1.66 0.17,2.95 1.5,3.46 0.74,-1.46 0.54,-3.81 2.39,-3.88 0.87,1.16 -0.2,5.03 -0.21,7.07 -0.02,4.15 0.63,11.18 -0.57,15.03 -0.4,1.29 -2.05,4.43 -3.51,3.01 -0.98,-0.98 0.54,-3.86 0.55,-5.66 0.02,-2 -0.66,-3.7 -1.46,-5.13 -0.72,-1.29 -1.97,-3 -2.8,-3.85 -0.57,-0.57 -1.12,-0.94 -1.74,-1.47 -1.32,-1.11 -1.35,-0.64 -1.75,-1.48zm11.82 7.04c0.18,-0.35 0.31,-0.32 0.65,-0.54 6.72,-4.44 3.1,-3.55 2.59,-6.04 0.84,-1.33 2.15,-1.31 2.17,-3.21 0.02,-1.81 -0.94,-2.8 -1.11,-4.16 -0.27,-2.26 0.18,-2.7 -1.25,-4.03 -0.6,-0.56 -2.9,-1.58 -2.51,-2.79 0.43,-1.31 2.9,-0.06 3.96,0.42 5.96,2.7 4.89,8.65 2.9,10 0.35,2.49 1.85,3.94 -1.05,7.93 -2.45,3.36 -7.5,4.68 -6.35,2.42zm-52.85 10.21c-2.26,-0.83 -0.81,-4.51 0.22,-5.78 2.07,-2.55 5.21,-1.07 5.99,-2.07 0.97,-1.24 -0.73,-1.78 -1.5,-2.17 -6.19,-3.19 -5.61,-15.13 -1.34,-20.38 3.18,-3.9 11.54,-3.51 10.57,0.28 -1.63,0.51 -1.88,-0.95 -2.86,-1.41 -3.28,-1.53 -7.63,2.68 -7.15,6.74 2.56,1.91 11.5,0.29 8.04,4.77 -3.02,0.65 -4.15,-2.69 -6.72,-1.38 -1.58,0.8 -2.86,3.74 -1.98,5.91 3.49,0.81 4.28,-2.87 6.45,-1.86 0.86,1.52 -0.57,2.52 0.83,4 1.16,1.24 2.53,0.72 3.27,1.84 0.99,2.24 -1.27,2.74 -2.7,3.52 0.16,3.79 -3.94,4.18 -6.27,3.78 -1.74,-0.3 -2.63,-0.88 -3.64,0.55 -0.86,1.22 -0.6,2.67 -1.21,3.66zm23.08 -19.71c-3.6,-2.79 -4.25,-1.37 -6.54,-1.88 -2.05,-0.46 -3.12,-4.84 -0.03,-4.67 2.01,0.12 3.24,3.62 5.22,3 0.94,-0.3 0.39,-2.55 0.4,-3.62 0.03,-2.16 0.51,-5.59 0.86,-7.75 0.23,-1.42 0.51,-2.13 2.19,-1.87 1.96,0.31 4.5,1.89 3.79,4.18 -0.41,1.31 -2.7,3.34 -3.2,5.07 -0.5,1.72 0.26,2.17 0.46,3.45 0.24,1.51 -0.4,2.49 0.61,3.6 1.86,0.94 3.17,-2.44 4.24,-1.55 0.23,0.21 0.51,-0.16 0.25,0.96 -0.14,0.61 -1.22,1.51 -1.74,1.95 -0.85,0.72 -2.06,1.47 -2.5,2.3 -1.04,2.01 -0.39,7.2 1.35,8.06 1.11,-0.32 1.47,-1.22 2.16,-2.01 2.5,-2.89 7.09,-3.83 8.47,-2.52 -0.57,0.69 -6.41,1.07 -7.6,4.79 -0.58,1.79 0.38,2.16 1.15,2.77 0.61,5.44 -4.93,2.19 -6.46,0.58 -0.52,-0.56 -1.22,-1.6 -1.67,-2.46 -2.17,-4.04 0.44,-1.47 -4.34,-3.68 -0.94,-0.44 -1.71,-0.84 -2.5,-1.41 -1.11,-0.79 -3.26,-2.71 -3.61,-4.33 3.1,-0.18 3.04,3.63 8.7,3.88 -0.11,-2.62 0.35,-4.68 0.34,-6.84zm11.67 -19.27c-1.57,-0.93 -1.75,-0.79 -3.88,-0.34 -1.68,0.35 -2.37,-0.82 -3.12,-1.55 -3.05,-2.95 -3.64,1.41 -6.83,-1.42 -1.14,-1.01 -2.33,-0.58 -4.19,-0.5 -1.92,0.08 -2.36,0.65 -3.2,1.7 -2.04,2.55 -1.48,6.38 -3.62,5.93 -2.27,-0.47 -0.24,-6.11 0.82,-7.14 1.1,-1.07 4.61,-2.32 6.45,-3.18 4.77,-2.25 10.21,-0.65 12.94,4.67 1.96,0.06 3.02,-0.76 4.96,-0.05 6.16,2.27 0.51,7.55 1.73,10.64 2.91,0.5 5.01,-5.31 7.09,-6.88 1.42,-1.07 4.06,-0.93 5.6,-0.07 0.91,0.51 3.2,2.73 2.58,4.08 -0.93,1.47 -5.45,0.43 -6.86,-0.71 -0.81,-0.65 -1.7,-1.7 -2.46,0.37 -0.52,1.4 -0.39,2.77 -0.93,3.89 -1.26,2.57 -5.38,3.22 -6.66,6.4 -0.24,0.6 -0.45,3.52 -2.38,4 -0.28,-0.56 0.04,-2.46 0.05,-3.39 0.03,-1.97 0.68,-1.44 1.2,-2.74 -0.42,-2.09 -2.77,-4.44 -1.95,-7.14 0.71,-2.31 3.59,-2.6 2.66,-6.57zm-11.02 56.2c2.76,0.21 2.49,-1.61 2.15,-3.91 -1.42,-0.45 -1.89,-0.86 -2.76,-1.62 -1.34,-1.15 -1.11,-0.96 -3.4,-0.85 -2.05,0.09 -6.57,0.38 -7.15,-2.08 2.29,-0.09 5.1,1.56 7.25,0.47 -0.17,-1 -1.05,-1.39 -0.95,-2.77 1.55,1.09 3.77,3.39 7.22,3.57 -0.24,-3.55 -0.44,-12.87 -5.44,-9.85 -1.41,0.86 -1.88,1.64 -1.68,3.63 -4.11,2.5 -3.72,-2.53 -6.57,-2.42 -1.25,0.05 -2.28,1.51 -2.63,2.58 -0.62,1.88 -0.57,6.7 -5.45,4.51 -1.71,-0.77 -2.22,-5.18 0.95,-7.15 1.36,-0.84 2.55,-0.89 4,-1.51 0.01,-1.47 -0.76,-1.73 0.06,-3.33 1.14,0.23 0.98,1.33 1.8,2.2 1.35,1.45 1.54,0.5 2.86,0.29 1.7,0.69 1.73,1.95 3.3,2.63 0.5,-1.68 3.43,-5.11 5.81,-4.78 1.28,0.18 0.74,0.74 1.88,0.77 0.73,0.02 3.58,-1.21 5.01,2.86 0.98,2.8 1.41,6.07 4.42,6.63 1.67,0.31 3.62,-0.39 3.4,-2.03 -0.2,-1.51 -1.88,-1.93 -1.46,-3.81 4.51,-0.92 3.13,4.77 8.6,6.96 2.55,1.02 3.75,-1.42 4.55,-3.02 1.35,-2.71 1.59,-5.37 2.28,-5.77 1.21,-0.52 2.15,0.58 2.14,1.91 0,0.96 -0.56,2.84 -0.81,3.81 -0.73,2.74 -3.04,9.39 -0.75,10.79 1.48,0.9 2.49,0.21 3.49,-0.49 0.94,-0.66 4.71,-3.87 6.46,-2.1 0.9,1.23 -1.29,3.09 -1.81,3.55 -3.39,2.99 -8.59,2.22 -10.13,8.19 -1.36,5.24 1.35,11.83 6.27,14.09 0.74,0.35 1.73,0.5 2.29,0.92 -0.45,2.22 -4.8,1.38 -6.86,1.24 -2.27,-0.17 -6.76,0.38 -7.96,-0.87 -0.75,-1.63 0.86,-2.16 1.28,-4.25 0.34,-1.66 0.45,-3.53 0.49,-5.29 0.06,-2.76 0.37,-8.62 -1.16,-10.35 -2.87,-0.01 -2.06,2.1 -9.46,1.23 -2.2,-0.26 -3.11,-0.29 -3.46,1.95 -0.23,1.49 -0.27,3.77 -0.21,5.33 0.33,8.7 2.76,4.12 9.45,7.12 2.12,0.96 3.14,1.14 3.23,2.31 -2.38,1.33 -4.36,-0.8 -7.42,1.05 -0.92,0.56 -1.79,1.19 -3.14,1.23 -1.63,0.03 -2.34,-0.8 -3.63,-0.83 -1.08,0.82 -0.72,1.29 -1.39,2.4 -4.08,0.43 -1.7,-2.97 -5.51,-2.26 -3.23,0.6 -4.13,-1.49 -6.61,0.91 0.49,0.82 6.59,5.69 8.04,7.03 4.12,3.78 10.24,7.49 14.89,10.56 5.88,3.89 19.96,10.97 28.35,12.17l0.07 -122.19 -85.92 0.01c-0.36,7.49 -0.04,15.87 -0.02,23.38 0.02,8.35 0.54,13.24 2.77,20.76 3.66,12.32 9.88,22.38 16.12,30.89 2.96,4.04 7.4,9.09 10.78,12.62 2.83,2.95 2.91,4.12 6.94,1.11 5,-3.73 6.81,-1.03 6.92,-5.04 0.38,-14.33 -1.91,-11.11 -5.79,-11.69 -1.53,-0.23 -3.26,-1.24 -4.71,-0.62 -0.89,0.39 -1.01,0.97 -2.06,0.56 -0.6,-0.23 -1.1,-1.06 -1.03,-2.01 0.22,-3.02 5,-4.15 8.14,-3.61 2.36,0.42 2.69,0.92 3.67,2.28z"/>
  <path class="fil1" d="M36.89 5.1l149.23 0.01c0.57,1.26 0.49,2.52 2.05,5.47 2.57,4.85 6.88,9.03 10.73,12.67l13.44 9.71c1.61,1.01 3.32,1.88 4.96,2.76 0.04,28.62 0.1,57.23 0.15,85.85 0.02,14.94 0.28,25.48 -3.66,39.37 -3.02,10.65 -8.7,21.51 -14.05,29.07 -3.07,4.36 -6.16,8.25 -9.52,11.81 -3.09,3.29 -4.46,5.03 -8.05,8.01 -1.12,0.92 -0.99,1.08 -2.88,2.62l-5.93 4.84c-2.93,2.16 -10.25,7.11 -12.98,8.58 -13.58,7.32 -21.9,11.33 -38.43,15.48 -9.4,2.36 -9.15,2.59 -18.08,0.57 -5.91,-1.34 -11.17,-2.94 -16.61,-4.97 -11.97,-4.45 -23.54,-10.94 -32.99,-17.92 -0.6,-0.44 -0.97,-0.72 -1.56,-1.18 -5.44,-4.24 -15.57,-13.11 -19.42,-18.19 -1.8,-2.38 -5.31,-6.2 -7.2,-9.09 -3.63,-5.56 -4.67,-6.73 -8.32,-13.24 -4.82,-8.59 -9.38,-20.76 -11.17,-31.97 -1.5,-9.34 -0.96,-31.53 -0.94,-42.14 0.02,-14.37 0.06,-28.74 0.08,-43.11 0.02,-7.19 0.04,-14.38 0.04,-21.56 0,-3.61 -1.14,-1.95 5.11,-5.54 2.96,-1.7 6.79,-4.38 9.5,-6.54 6.53,-5.19 15.09,-12.93 16.5,-21.37zm-35.44 26.71l-0.62 101c-0.12,20.41 8.27,42.83 19.21,58.77 4.91,7.16 11.8,15.25 18.08,20.91 0.69,0.62 1.13,1.19 1.88,1.79 1.34,1.07 2.37,2.16 3.76,3.34 2.95,2.5 9.11,6.9 12.28,9.05 12.59,8.54 29.53,15.65 44.35,19.62 2.1,0.57 9.79,2.57 11.62,2.5 4.25,-0.15 18.1,-4.25 22.63,-5.78 8.99,-3.03 21.38,-8.42 29.3,-13.36 7.98,-4.97 13.67,-8.81 20.71,-14.83l3.64 -3.46c8.86,-8.42 17.52,-18.76 24,-32.87 10.85,-23.59 9.76,-41.93 9.77,-65.4l0.04 -80.93c-3.79,-1.62 -6.88,-3.43 -10.06,-5.54 -7.54,-5 -14.61,-12.34 -19.03,-20.43 -0.93,-1.72 -1.71,-3.59 -2.67,-5.34l-157.55 -0.02c-0.71,0.93 -3.14,6.62 -5.56,10 -5.69,7.99 -11.8,13.42 -20.66,18.33 -1.51,0.84 -3.86,1.78 -5.12,2.65z"/>
  <path class="fil0" d="M74.52 35.88l-8.26 5.26c-4.45,3.07 -4.14,1.34 -5.07,5.03 -0.32,1.27 -0.51,1.14 -1.69,1.74l-12.84 7.11c-5.16,3.03 -20.59,11.77 -26.15,14.45 -0.95,0.46 -1.47,0.46 -1.73,1.72 -0.54,2.5 1.33,4.41 2.41,7.29 2.57,-0.51 6.49,-3.15 8.35,-4.33 6.43,-4.13 16.54,-8.62 24.05,-13.33 3.81,-2.39 29.16,-17.43 31.6,-18.32l4.63 6.81c8.51,13.68 7.05,22.56 7.67,24.68 0.16,0.53 0.37,0.68 0.57,0.91 1.38,-0.61 2.07,-2.48 2.72,-3.82 0.7,-1.44 1.24,-3.13 1.64,-4.77 1.02,-4.18 1.48,-7.08 0.33,-11.35 -1.86,-6.84 -7.59,-17.1 -7.71,-18.09 0.45,-0.36 2.08,-1.86 2.35,-2.45 0.5,-1.09 -3.66,-6.57 -4.89,-8.9l-5.76 0.44 -3.49 -5.85c-0.6,-0.92 -1.05,-1.83 -1.73,-2.86 -0.6,-0.91 -1.18,-1.98 -1.66,-2.85 -1.91,-0.13 -4.79,2.03 -6.46,2.93 -3.13,1.67 -4.64,1.17 -0.07,7.42 0.71,0.97 0.97,1.61 1.8,2.78 0.72,1.01 3.04,4.56 3.44,5.6 -1.07,0.92 -2.72,1.95 -4.05,2.75z"/>
  <path class="fil0" d="M161.81 141.27c0.17,-0.12 6.87,-0.09 7.8,-0.1 2.24,-0.03 1.85,-0.06 1.82,2.19 -0.02,1.29 0.02,2.58 -0.06,3.87l-8.43 0.51c-1.5,-0.07 -1.27,-0.75 -1.32,-1.15l0.19 -5.32zm-13.75 -11.9c4.61,0 33.84,-0.21 35.89,0.1l-0.09 6.86c-3.3,0.26 -29.93,0.14 -34.89,0.08l-0.85 -0.02 -0.07 -6.1 0.01 -0.92zm33.66 62.8c-0.23,-2.66 -1.69,-7.58 -2.33,-10.44 -1.07,-4.76 -6.98,-29.37 -6.88,-30.65l3.69 -0.18 0.06 -9.7c1.99,-0.2 4.59,-0.06 6.65,-0.06 2.77,0 4.61,0.42 5.61,-0.64 1.86,-1.96 1.76,-0.92 1.79,-4.48 0.01,-2.18 0.06,-4.37 0.09,-6.56l7.81 -0.03 -0.03 -5.27 -63.81 0.03c-0.15,1.17 0,2.4 0.02,3.59 0.05,2.42 -0.34,1.62 8.45,1.68 0.01,2.11 0.07,4.22 0.09,6.33 0.05,3.57 -0.28,2.9 1.6,4.9 0.82,0.88 1.06,0.65 2.6,0.64l9.73 0 0.01 10.07 3.63 0.08 -14.61 45.58c1.72,0.01 1.29,-0.32 1.93,-1.87l3.13 -7.64c1.21,-3.16 12.07,-29.84 12.72,-30.66 0.76,3.52 1.14,8.56 1.62,12.36l3.89 30.49c0.13,1.01 0.27,2.05 0.39,3.05 0.2,1.78 -0.21,2.18 1.48,2.13l-1.05 -47.22 5.36 17.27c0.89,2.97 1.71,5.77 2.58,8.65 0.62,2.02 1.84,7.04 2.68,8.64l1.1 -0.09z"/>
  <path class="fil0" d="M1.45 31.81c1.26,-0.87 3.61,-1.81 5.12,-2.65 8.86,-4.91 14.97,-10.34 20.66,-18.33 2.42,-3.38 4.85,-9.07 5.56,-10l157.55 0.02c0.96,1.75 1.74,3.62 2.67,5.34 4.42,8.09 11.49,15.43 19.03,20.43 3.18,2.11 6.27,3.92 10.06,5.54l-0.04 80.93c-0.01,23.47 1.08,41.81 -9.77,65.4 -6.48,14.11 -15.14,24.45 -24,32.87l-3.64 3.46c-7.04,6.02 -12.73,9.86 -20.71,14.83 -7.92,4.94 -20.31,10.33 -29.3,13.36 -4.53,1.53 -18.38,5.63 -22.63,5.78 -1.83,0.07 -9.52,-1.93 -11.62,-2.5 -14.82,-3.97 -31.76,-11.08 -44.35,-19.62 -3.17,-2.15 -9.33,-6.55 -12.28,-9.05 -1.39,-1.18 -2.42,-2.27 -3.76,-3.34 -0.75,-0.6 -1.19,-1.17 -1.88,-1.79 -6.28,-5.66 -13.17,-13.75 -18.08,-20.91 -10.94,-15.94 -19.33,-38.36 -19.21,-58.77l0.62 -101zm-0.86 -0.66c-0.17,27.39 -0.31,54.78 -0.47,82.17 -0.04,6.87 -0.16,13.77 -0.1,20.64 0.05,6.54 0.92,12.43 2.23,18.55 4.16,19.41 11.56,32.19 22.54,46.93l5.91 6.94 10.53 10.11c0.97,0.8 1.82,1.6 2.85,2.42 6.15,4.86 14.7,10.99 21.53,14.48 4.49,2.29 8.87,4.68 13.93,6.71 9.26,3.71 20.79,7.81 31.59,9.46 2.43,0.38 14.29,-2.86 17.01,-3.64 16.91,-4.83 29.99,-11.42 44.1,-20.57 4.58,-2.97 8.93,-6.55 13.02,-10.13 2.87,-2.52 5.28,-4.59 7.9,-7.48l4.92 -5.39c2.74,-3.76 6.17,-7.58 8.68,-11.97 0.58,-1.01 1.26,-2.08 1.9,-3.14 0.68,-1.11 1.2,-2.11 1.8,-3.25 13.27,-25.03 12.43,-42.43 12.44,-69.99 0,-13.76 0.02,-27.52 0.03,-41.28 0.01,-13.59 0.37,-27.64 0.01,-41.17 -1.69,-0.47 -3.85,-1.74 -5.45,-2.59 -4.02,-2.14 -4.81,-3.17 -7.39,-4.76 -0.9,-0.55 -1.43,-0.95 -2.25,-1.65 -3.24,-2.76 -6.33,-5.68 -8.84,-9.06 -3.44,-4.64 -5.71,-7.61 -8.05,-13.49l-158.48 0c-0.85,0.41 -1.15,1.76 -1.53,2.62 -2.32,5.17 -4.75,7.94 -7.71,12.01 -0.55,0.76 -1.19,1.37 -1.82,2.08 -2.84,3.22 -7.21,6.63 -10.75,8.97 -3.19,2.11 -6.4,3.91 -10.08,5.47z"/>
  <path class="fil1" d="M148.05 130.29l0.07 6.1 0.85 0.02c4.96,0.06 31.59,0.18 34.89,-0.08l0.09 -6.86c-2.05,-0.31 -31.28,-0.1 -35.89,-0.1l-0.01 0.92z"/>
  <path class="fil0" d="M53.26 143.19c0.01,2.16 -0.45,4.22 -0.34,6.84 -5.66,-0.25 -5.6,-4.06 -8.7,-3.88 0.35,1.62 2.5,3.54 3.61,4.33 0.79,0.57 1.56,0.97 2.5,1.41 4.78,2.21 2.17,-0.36 4.34,3.68 0.45,0.86 1.15,1.9 1.67,2.46 1.53,1.61 7.07,4.86 6.46,-0.58 -0.77,-0.61 -1.73,-0.98 -1.15,-2.77 1.19,-3.72 7.03,-4.1 7.6,-4.79 -1.38,-1.31 -5.97,-0.37 -8.47,2.52 -0.69,0.79 -1.05,1.69 -2.16,2.01 -1.74,-0.86 -2.39,-6.05 -1.35,-8.06 0.44,-0.83 1.65,-1.58 2.5,-2.3 0.52,-0.44 1.6,-1.34 1.74,-1.95 0.26,-1.12 -0.02,-0.75 -0.25,-0.96 -1.07,-0.89 -2.38,2.49 -4.24,1.55 -1.01,-1.11 -0.37,-2.09 -0.61,-3.6 -0.2,-1.28 -0.96,-1.73 -0.46,-3.45 0.5,-1.73 2.79,-3.76 3.2,-5.07 0.71,-2.29 -1.83,-3.87 -3.79,-4.18 -1.68,-0.26 -1.96,0.45 -2.19,1.87 -0.35,2.16 -0.83,5.59 -0.86,7.75 -0.01,1.07 0.54,3.32 -0.4,3.62 -1.98,0.62 -3.21,-2.88 -5.22,-3 -3.09,-0.17 -2.02,4.21 0.03,4.67 2.29,0.51 2.94,-0.91 6.54,1.88z"/>
  <path class="fil1" d="M111.63 138.51c1.59,-0.77 3.39,1.29 3.47,3.01 0.11,2.48 -2.1,5.54 -5.01,3.12 -0.41,-0.34 -1.04,-1.42 -1.16,-2.27 -0.32,-2.42 1.12,-3.09 2.7,-3.86zm-0.27 -7.29c-4.36,1.06 -6.58,3.59 -8.62,6.96 -0.86,1.44 -1.29,2.08 -0.59,3.78 1.93,0 1.35,-1.83 3.93,-5.03 1.19,-1.48 2.61,-2.96 5.24,-3.62l0 3.11c-2.24,0.95 -3.98,1.91 -4.38,4.56 -0.26,1.72 0.22,4.18 1.49,5.08 0.59,0.42 0.84,0.29 1.44,0.97 -0.4,0.81 -0.79,1.1 -1.3,1.79 -0.44,0.59 -0.78,1.23 -1.14,2.07 -1.57,3.56 -4,16.48 -0.72,14.96 0.55,-0.31 0.35,0.14 0.68,-0.78 0.47,-1.33 -0.8,-12.74 4.89,-17.03 3.26,2.97 3.94,9.27 4.55,13.97 0.25,1.92 -0.03,4.15 2.09,4.02 1.54,-2.43 -1.01,-12.09 -2.18,-14.98 -0.58,-1.45 -1.89,-3.19 -2.15,-4.12 1.41,-1.41 2.88,-2.16 2.68,-5.62 -0.19,-3.11 -2.24,-3.84 -3.67,-5.06l-0.06 -2.93c2.73,0.51 4.2,2.18 5.45,3.79 2.68,3.45 1.53,5.39 3.8,5.25 0.73,-1.18 0.23,-2.52 -0.4,-3.84 -2.15,-4.54 -4.62,-5.87 -8.84,-7.44 -0.01,-0.88 0.22,-4.31 -0.42,-4.87 -0.52,-0.47 -1.25,-0.07 -1.51,0.42 -0.39,0.72 -0.23,3.57 -0.26,4.59z"/>
  <path class="fil0" d="M64.93 123.92c0.93,3.97 -1.95,4.26 -2.66,6.57 -0.82,2.7 1.53,5.05 1.95,7.14 -0.52,1.3 -1.17,0.77 -1.2,2.74 -0.01,0.93 -0.33,2.83 -0.05,3.39 1.93,-0.48 2.14,-3.4 2.38,-4 1.28,-3.18 5.4,-3.83 6.66,-6.4 0.54,-1.12 0.41,-2.49 0.93,-3.89 0.76,-2.07 1.65,-1.02 2.46,-0.37 1.41,1.14 5.93,2.18 6.86,0.71 0.62,-1.35 -1.67,-3.57 -2.58,-4.08 -1.54,-0.86 -4.18,-1 -5.6,0.07 -2.08,1.57 -4.18,7.38 -7.09,6.88 -1.22,-3.09 4.43,-8.37 -1.73,-10.64 -1.94,-0.71 -3,0.11 -4.96,0.05 -2.73,-5.32 -8.17,-6.92 -12.94,-4.67 -1.84,0.86 -5.35,2.11 -6.45,3.18 -1.06,1.03 -3.09,6.67 -0.82,7.14 2.14,0.45 1.58,-3.38 3.62,-5.93 0.84,-1.05 1.28,-1.62 3.2,-1.7 1.86,-0.08 3.05,-0.51 4.19,0.5 3.19,2.83 3.78,-1.53 6.83,1.42 0.75,0.73 1.44,1.9 3.12,1.55 2.13,-0.45 2.31,-0.59 3.88,0.34z"/>
  <path class="fil1" d="M156.98 39.62c2.04,-0.2 3,-0.37 5.15,-0.19 -0.1,1.95 -0.56,2.74 -2.62,2.77 -2.1,0.03 -2.51,-0.5 -2.53,-2.58zm3.58 -7.44c0.54,0.09 1.04,0.15 1.56,0.34 0.85,0.31 0.57,0.2 0.89,0.75 -0.79,0.56 -1.32,0.52 -2.46,0.55l0.01 -1.64zm-2.74 0.15l1.04 -0.22 -0.09 1.8c-0.61,0.06 -1.65,0.17 -1.94,-0.28l-0.97 -0.13c0.44,-0.76 0.92,-1.05 1.96,-1.17zm6.36 -2.39c0.17,0.82 0.29,1 -0.04,1.79 -0.31,0 -1.11,-0.57 -1.84,-0.77 -1.63,-0.44 -1.69,0.18 -1.7,-1.53 1.43,0.06 2.45,0.06 3.58,0.51zm-9 1.68c-0.36,-2.18 1.74,-2.09 3.64,-2.13l-0.03 1.01 -3.61 1.12zm-0.02 -12.13c-1.36,0.6 -0.8,2.27 -0.08,3.08 0.97,1.09 2.52,0.6 3.74,1.3l-0.01 1.1c-1.59,0.09 -3.11,0.12 -4.66,0.17 -1.31,0.05 -3.96,-0.15 -3.12,1.45 0.59,0.72 5.95,0.12 7.83,0.11l-0.05 1.07c-1.9,0.98 -6.08,-0.61 -5.39,4.76 0.25,1.93 -1.15,2.11 -1.47,9 -0.08,1.75 -0.64,5.43 0.92,6.13 1.41,-0.63 0.73,-2.87 0.87,-6.36 0.08,-2.03 0.09,-4.89 1.19,-6.35 1.45,0.43 2.12,0.41 3.8,0.7l0.03 2.11 -1.83 0.22c0,-1.21 0.15,-1.18 -0.39,-1.92 -1.9,0.19 -1.44,3.64 -1.17,5.05 0.33,1.81 1.82,2.78 3.92,2.73 2.16,-0.05 3.75,-0.59 4.24,-2.44 0.44,-1.68 0.54,-4.64 -0.36,-5.77 -1.37,0.12 -1.06,0.85 -1.13,2.18l-1.45 -0.09c-0.56,-2.64 0.26,-2.18 3.4,-2.72 0.91,4.57 1.17,5.12 1.35,9.98 0.05,1.47 -0.31,2.55 1.06,2.81 1.61,-1.21 -0.05,-10.87 -0.52,-12.39 -0.54,-1.75 -0.65,-1.02 -0.13,-2.76 0.67,-2.25 0.12,-4.06 -2.4,-4.56 -1.73,-0.35 -3.03,0.25 -2.75,-1 0.12,-0.54 0.54,-0.45 1.89,-0.44 0.77,0 1.53,0 2.3,0 1.59,0 3.41,0.38 3.81,-0.93 -0.99,-1.3 -5.53,-0.79 -8,-0.76 0.01,-2.76 0.66,-0.63 2.97,-2.3 0.95,-0.69 1.49,-2.28 0.82,-3.6l-1.02 -0.01c-0.63,1.42 0.3,3.03 -3.85,3 -4.86,-0.04 -2.54,-1.66 -4.36,-2.55z"/>
  <path class="fil1" d="M111.25 180.33c-6.06,1.27 -7.8,5.44 -8.68,10.18 -0.2,1.03 -1.12,4.93 0.06,5.66 1.64,0.67 1.48,-2.07 1.65,-3.49 0.53,-4.52 1.94,-8.86 6.98,-10.14 0.14,11.32 -0.89,15.92 -7.23,24.59 -0.47,0.64 -1.71,1.73 -1.11,2.65 0.54,0.67 1.16,0.43 1.96,-0.42 1.21,-1.27 2.94,-3.74 3.87,-5.31 1.4,-2.37 2.39,-4.88 3.24,-7.53l0.45 -1c0.03,-0.04 0.07,-0.11 0.11,-0.16 1.27,5.57 3.41,9.88 6.87,14.02 0.91,1.09 1.24,1.27 1.79,0.7 1.15,-1.18 -1.48,-3.44 -2.71,-5.75 -4.41,-8.33 -5.09,-11.3 -5.2,-21.92 3.41,0.45 5.38,2.53 6.37,5.39 0.53,1.54 0.86,3 1.08,4.64 0.38,2.75 -0.34,4.47 1.7,4.39 1.8,-2.66 -0.83,-10.42 -3.08,-13.55 -1.66,-2.32 -5.52,-2.7 -5.8,-2.91 -0.85,-0.62 0.11,-5.69 -0.53,-8.43 -2.85,-0.46 -1.61,3.23 -1.79,8.39z"/>
  <path class="fil0" d="M30.18 162.9c0.61,-0.99 0.35,-2.44 1.21,-3.66 1.01,-1.43 1.9,-0.85 3.64,-0.55 2.33,0.4 6.43,0.01 6.27,-3.78 1.43,-0.78 3.69,-1.28 2.7,-3.52 -0.74,-1.12 -2.11,-0.6 -3.27,-1.84 -1.4,-1.48 0.03,-2.48 -0.83,-4 -2.17,-1.01 -2.96,2.67 -6.45,1.86 -0.88,-2.17 0.4,-5.11 1.98,-5.91 2.57,-1.31 3.7,2.03 6.72,1.38 3.46,-4.48 -5.48,-2.86 -8.04,-4.77 -0.48,-4.06 3.87,-8.27 7.15,-6.74 0.98,0.46 1.23,1.92 2.86,1.41 0.97,-3.79 -7.39,-4.18 -10.57,-0.28 -4.27,5.25 -4.85,17.19 1.34,20.38 0.77,0.39 2.47,0.93 1.5,2.17 -0.78,1 -3.92,-0.48 -5.99,2.07 -1.03,1.27 -2.48,4.95 -0.22,5.78z"/>
  <path class="fil1" d="M131.2 45.05c0.58,-1.4 1.97,-2.34 3.27,-5.14l0.85 1.29c1.06,2.1 1.92,2.61 2.39,3.71 -2.28,0.51 -4.22,0.47 -6.51,0.14zm2.38 -22.33l0.03 9.18c-0.01,2.69 0.33,5.02 -0.71,7.32 -0.95,2.11 -2.14,3.15 -3.22,4.76 -2.92,-3.38 -0.18,-19.62 -1.81,-21.19 -1.43,0.21 -1.13,1.21 -1.2,2.75 -0.19,3.91 -0.36,15.04 0.59,17.76 1.19,3.41 3.18,3.53 6.34,3.63 9.6,0.31 8.42,-4.09 8.41,-13.66 0,-2.11 0.18,-9.68 -0.67,-10.91 -2.05,-0.15 -1.02,2.63 -1.02,7.24 0,3.71 0.47,11.75 -0.99,14.39 -5.27,-5.53 -4.07,-11.41 -4.06,-18.97 0,-0.73 0.08,-3.83 -0.19,-4.27 -0.37,-0.61 -0.96,-0.55 -1.31,0.03 -0.27,0.44 -0.19,1.42 -0.19,1.94z"/>
  <path class="fil1" d="M48.76 96.52c-0.83,-0.63 -1.7,-1.66 -0.49,-2.72 3.92,-3.43 4.92,-0.03 3.55,1.49 -0.49,0.54 -1.97,1.28 -3.06,1.23zm-2.49 -6.29c0.19,1.27 1.45,1.16 2.3,1.99 -0.39,1.66 -1.69,0.67 -1.75,2.96 -0.05,2.21 0.51,2.38 -0.94,3.56 -1.74,1.41 -3.87,3.72 -5.15,4.28 -0.46,-0.22 -2.01,-2.19 -1.8,2.72 0.91,0.55 1.26,0.91 2.75,0.7 0.69,-1.69 2.19,-5.61 3.96,-5.37 0.1,0.83 -0.12,1.49 0.37,2.24 0.55,-0.21 0.35,-0.06 0.66,-0.57 0.44,-0.71 1,-3.94 3.86,-4.49 0.17,1 0.07,1.32 0.75,1.88 1.37,-0.44 0.61,-1.94 1.95,-3.21 0.54,-0.5 2.39,-2.03 3.38,-1.8 0.31,0.79 -1.37,2.96 -1.91,3.95 -0.31,0.59 -0.81,1.54 -0.96,2.23 -0.23,1.06 -0.14,1.83 -0.63,2.58 -2.64,0.46 0.2,-1.5 -5.75,0.7 -1.01,0.37 -1.16,0.22 -1.17,1.4 0.91,0.56 2.68,0.62 3.91,0.37 0.69,-0.94 0.01,-1.1 1.18,-1.67 0.56,0.25 0.71,-0.01 1.29,1.83 3.38,0.14 2.69,-1.09 4.57,-5.91 0.93,-2.37 3.65,-6.29 3.21,-7.18 -2.67,-2.64 -3.97,1.72 -6.14,0.7 -0.34,-0.72 -0.12,-0.8 -0.34,-1.53 -0.3,-0.99 -0.37,-0.27 -0.54,-1.32 1.67,-1.05 2.74,-1.97 5.06,-2.65 0.61,-4.52 -3.66,-0.85 -4.61,-0.32 -3.55,1.96 -3.02,1.58 -7.51,1.93z"/>
  <path class="fil0" d="M71.21 145.65c0.4,0.84 0.43,0.37 1.75,1.48 0.62,0.53 1.17,0.9 1.74,1.47 0.83,0.85 2.08,2.56 2.8,3.85 0.8,1.43 1.48,3.13 1.46,5.13 -0.01,1.8 -1.53,4.68 -0.55,5.66 1.46,1.42 3.11,-1.72 3.51,-3.01 1.2,-3.85 0.55,-10.88 0.57,-15.03 0.01,-2.04 1.08,-5.91 0.21,-7.07 -1.85,0.07 -1.65,2.42 -2.39,3.88 -1.33,-0.51 -1.43,-1.8 -1.5,-3.46 -0.06,-1.56 0.27,-3.22 -0.07,-4.75 -2.97,0.23 -1.6,7.14 -1.22,9.47 0.36,2.21 0.75,4.09 -2.15,3.05 -1.47,-0.52 -3.37,-2.04 -4.16,-0.67z"/>
  <path class="fil0" d="M41.31 180.42c-2.59,-0.57 -4.06,0.03 -5.33,-2.04 -1.42,-2.31 0.63,-2.86 -2.04,-5.3 -0.99,-0.91 -3.98,-2.29 -4.46,-2.86 -1.47,-1.74 1.21,-3.42 -0.68,-5.95 -2.68,0.72 -3.7,3.8 -1.88,7.12 0.67,1.21 1.6,2.18 2.46,3.05 2.34,2.35 0.85,1.24 0.68,3.61 -0.13,1.77 4.95,8.14 9.66,5.58 1.32,-0.72 2.18,-1.38 1.59,-3.21z"/>
  <path class="fil1" d="M61.2 173.26c0.15,9.26 3.67,3.5 5.92,4.01 0.74,2.57 -0.82,4.14 2.8,4.55 2.54,0.29 4.82,0.25 5.64,-1.76 -0.63,-2.57 -3.72,-1.44 -4.04,-3.44 0.73,-0.6 3.71,-0.15 2.11,-3.32 -0.56,-1.12 -2.03,-2.28 -3.6,-2.59 -2.26,-0.45 -3.36,0.85 -4.31,1.77 -1.95,1.86 -2.18,0.92 -4.52,0.78z"/>
  <path class="fil1" d="M73.81 94.8c-0.17,1.08 0.22,1.69 1.2,1.88 1.41,0.26 0.96,-1.03 2.41,0.1 0.02,1.91 -2.59,1.6 -3.82,2.55 0.28,1.57 1.85,1.82 3.44,1.21 0.67,-0.26 0.92,-0.72 1.46,-1.05 0.68,-0.43 1.33,-0.4 2.02,-0.72 0.1,-1.28 0,-1.78 0.77,-2.46 0.65,-0.59 1.38,-0.93 2.29,-0.62 0.22,1.6 -0.33,2.78 -0.53,4.17 -0.33,2.21 -0.03,2.14 -1.36,3.39 -2.84,-0.27 -1.6,-2.08 -1.57,-2.28 -0.93,-0.13 -1.93,0.09 -2.76,0.36 -1.55,0.49 -0.87,0.97 -0.43,1.92 -0.88,0.52 -0.64,-0.12 -0.9,0.89 0.58,0.56 0.4,0.21 1.19,0.58l0 1.61c2.21,0.13 1.06,-1.69 2.33,-2.78 1.82,0.09 1.73,2.4 3.8,2.4 0.67,-1.7 0.71,-4.3 1.26,-6.31 0.52,-1.84 1.27,-2.55 1.55,-4.21 0.03,-0.2 0.1,-0.74 0.1,-0.92 -0.03,-0.69 0.08,0.23 -0.05,-0.44 -0.63,-3.19 -7.28,4.33 -7.36,1.79 -0.03,-0.91 2.41,-2.72 3.22,-3.12 1.75,-0.88 4.3,-1.27 3.86,-3.07 -1.87,-0.82 -1.71,1.15 -3.6,1.29 0.1,-1.31 0.71,-3.17 -0.52,-3.86 -1.34,-0.75 -1.69,1.95 -1.96,2.94 -1.06,3.9 -1.79,4.39 -6.04,4.76z"/>
  <path class="fil0" d="M86.27 146.11c0.51,2.49 4.13,1.6 -2.59,6.04 -0.34,0.22 -0.47,0.19 -0.65,0.54 -1.15,2.26 3.9,0.94 6.35,-2.42 2.9,-3.99 1.4,-5.44 1.05,-7.93 1.99,-1.35 3.06,-7.3 -2.9,-10 -1.06,-0.48 -3.53,-1.73 -3.96,-0.42 -0.39,1.21 1.91,2.23 2.51,2.79 1.43,1.33 0.98,1.77 1.25,4.03 0.17,1.36 1.13,2.35 1.11,4.16 -0.02,1.9 -1.33,1.88 -2.17,3.21z"/>
  <path class="fil1" d="M173.5 93.98c-0.54,-0.61 -0.44,-0.69 -0.46,-1.55l2.66 -0.88c-0.55,0.82 -1.28,1.91 -2.2,2.43zm0.56 -4.61c-0.08,-0.69 -0.21,-0.49 -0.4,-1.28 0.92,0.25 1.48,1.01 1.34,2.12 -0.35,1.13 -1.9,1.18 -2.59,1.49 -0.64,0.29 0.06,-0.86 0.41,-1.31 0.36,-0.45 0.84,-0.72 1.24,-1.02zm0.73 -1.79c1.37,-0.44 3.5,-1.58 4.86,-1.55 -0.42,1.63 -2.43,3.15 -3.08,4.71 -0.27,-0.31 -0.12,-0.12 -0.35,-0.55 -0.83,-1.6 -1.24,-1.88 -1.43,-2.61zm-3.88 0.28c0.43,1.15 1.17,0.74 -0.28,3.29l-0.83 -1.2c-0.56,-1.04 -1.48,-2.86 -2.37,-2.91 0.22,0.92 0.61,2.04 0.87,3.05 0.1,0.38 0.23,1.46 0.38,1.71 0.31,0.56 0.57,0.06 1.25,0.42 -0.22,1.23 -0.93,1.74 -1.37,2.44 1.26,0.03 1.67,-1.07 2.42,-1.67 1.06,0.56 2.68,1.23 0.83,2.13 -6.56,3.16 -3.64,2.6 -6.98,4.82 0.38,-1.34 1.43,-2.41 1.81,-3.54 -0.57,0.4 -1.28,1.5 -1.7,2.16 -0.44,0.72 -1.15,1.49 -0.97,2.73 2.89,0.39 1.74,-3.16 6.35,-4.92 0.49,-0.19 1.5,-0.69 1.95,-0.81 1.53,-0.4 0.88,0.41 2.46,-0.51 0.57,-0.33 3.03,-1.22 3.86,-1.2 1.28,0.04 -0.85,-0.19 0.33,0.06l-7.02 3.14c0.79,0.39 1.85,-0.08 2.69,-0.31 0.95,-0.27 1.94,-0.35 2.86,-0.58 1.22,-0.31 4.76,-1.76 3.48,-2.89 -0.86,-1.05 -3.68,0.2 -4.88,0.43 0.64,-1.67 2.94,-4.89 4.09,-6.09 0.52,-0.53 1.28,-1.02 1.08,-2.18 -2.86,-0.64 -6.99,2.26 -8.69,2.48 0.52,-0.98 0.75,-0.76 1.99,-1.57 0.77,-0.5 1.36,-0.96 1.77,-1.69 -0.27,-1.27 -0.94,-1.81 -2.2,-2.07 0.48,1.87 0.19,1.59 -0.77,3.03 -0.52,0.77 -0.82,1.45 -1.73,1.94l-0.68 0.31z"/>
  <path class="fil1" d="M144.09 94.04c0.56,1.48 1.59,1.58 2.23,2.53 -0.56,1.42 -1.29,2 -2.03,3.12 -1.72,2.6 -3.6,4.75 -6.08,6.53l-1.28 0.82c-0.32,0.24 -0.17,0.09 -0.41,0.36 2.77,-0.15 4.32,-1.88 6.23,-3.05 1.19,-0.72 1.58,-1.24 2.45,-2.15 0.82,-0.86 1.32,-1.65 2.16,-2.36 1.76,1.37 1.9,3.12 3.23,4.51 0.78,0.83 1.84,1.2 2.88,0.39 0.5,-0.38 0.3,-0.53 1.11,-0.95 0.66,-0.34 0.93,-0.23 1.28,-0.79 -1.34,-0.65 -2.76,0.18 -4.8,-1.18 -0.88,-0.59 -2.42,-1.9 -3.17,-2.72 1.7,-5.38 5.8,-3.01 6.74,-5.74 -1.39,-0.85 -2.36,-0.08 -3.67,0.04 0.5,-2.39 3.57,-4.95 0.53,-6.35 -0.32,0.32 -1.79,4.14 -2.27,4.96 -0.48,0.82 -1.04,1.89 -1.54,2.12 -1.18,0.54 -2.51,0.1 -3.59,-0.09z"/>
  <path class="fil1" d="M127.18 102.38c-0.7,-0.83 -0.25,-2.8 -0.23,-2.84l1.05 -0.93 -0.2 3.12c-0.23,0.79 0.02,0.44 -0.62,0.65zm-1.83 -5.6c0.17,-0.48 0.4,-0.7 0.61,-1.03 0.05,1.27 -0.16,0.67 -0.61,1.03zm1.23 -2.19c0.95,-0.47 1.36,-1.17 2.48,-1.49 0.18,1.63 -0.48,3.15 -0.81,4.77 -0.54,-0.79 -0.34,-0.46 -1.15,-0.92l-0.52 -2.36zm2.46 -7.16c0.02,-0.02 0.06,0.04 0.06,0.07 0,0.01 0.02,0.02 0.02,0.02 -0.01,0 -0.35,0.27 -0.08,-0.09zm-7.78 4.04c4.31,1.14 5.2,-2.95 7.81,-3.83 -0.59,1.46 -1.3,0.7 -1.23,2.48 0.05,1.24 0.49,0.34 -1.26,2.13 0.57,0.24 1,0 1.74,-0.04 -0.9,0.88 -3.16,2.25 -4.08,4.44l-0.37 -0.75c-0.79,0.42 -0.94,1.48 -1.36,2.89 -0.49,1.68 -0.3,2.25 0.45,3.31 2.55,-0.27 -0.22,-2.84 2.39,-5.32 0.35,1.22 -0.68,2.02 -0.86,3.27l1.1 0.32 -0.14 2.81c1.27,0.09 0.32,-0.19 1.49,-0.38 0.43,0.92 0.21,1.11 1.42,1.09 0.78,-1.44 0.89,-7.04 1.71,-8.77 0.44,-0.95 1.01,-1.48 0.94,-2.62 -1.18,-0.74 -1.21,-0.32 -2.69,-0.29 0.75,-0.73 1.2,-0.44 1.7,-1.6 -0.39,-0.89 -0.37,-0.39 -0.69,-1.15 0.61,-0.57 0.93,-1.27 1.47,-1.88 0.65,-0.75 1.25,-1.04 0.92,-2.44 -1.74,-0.36 -3.69,1.33 -5.72,2.68l-4.23 3.11c-0.67,0.51 -0.25,-0.13 -0.51,0.54z"/>
  <path class="fil0" d="M86.42 166.06c0.81,0.89 1.54,1.04 3.02,0.75 0.37,-0.93 0.04,-1.29 0.76,-1.95 0.67,-0.61 3.11,-1.54 4.62,-4.11 1.99,-3.4 0.77,-6.24 -2.65,-7.14 -1.34,-0.36 -4.1,-0.93 -4.44,0.57 -0.52,2.28 4.46,2.91 1,8.29 -0.86,1.35 -2.35,2.03 -2.31,3.59z"/>
  <polygon class="fil1" points="161.97,147.41 171.12,147.2 171.19,141.34 162.11,141.36 "/>
  <path class="fil2" d="M189.34 69.41c0.37,0.37 -0.11,0.11 0.48,0.27l20.67 0.04 0.29 11 -83.86 0.16 -0.03 -11.14c3.43,-0.15 20.12,0.45 21.65,-0.19 0.4,-0.35 0.23,-4.64 0.23,-5.31 0,-1.51 0.16,-4.06 -0.11,-5.43 -2.36,-0.76 -18.8,0.36 -22.11,-0.31 0.29,0.67 0.6,0.38 2.47,0.38l19.51 0.01 0 10.66c-2.35,-0.18 -20.75,-0.29 -21.86,0.13l-0.03 11.27c2.01,0.41 58.22,0.04 63.15,0.04 6.7,-0.01 14.47,0.33 21.05,-0.08 0.33,-1.13 0.05,-9.65 -0.13,-11.22 -2.1,-0.84 -17.42,0.32 -21.37,-0.28z"/>
  <path class="fil1" d="M102.39 98.38c-0.88,-0.63 -0.98,-1.28 -2.54,-1.7 0.3,0.96 1.26,1.96 1.82,2.88 -0.43,1.66 -1.98,3.2 -2.96,4.31 -3.05,3.44 -2.51,1.76 -4.35,3.06 4.39,0.32 7.13,-4.09 8.52,-5.26 1.47,1.66 2.1,5.96 5.25,5.7 0.63,-0.05 2.7,-0.44 3.12,-0.7 -0.68,-0.79 -1.03,-0.56 -2.06,-1.04 -1.22,-0.58 -4.21,-3.93 -4.84,-5.39 0.41,-0.58 1.25,-0.95 0.89,-2.15 -0.23,-0.78 -0.95,-1.6 -1.91,-1.69 -0.37,0.95 -0.42,1.25 -0.94,1.98z"/>
  <path class="fil0" d="M162.26 65.17c1.37,0.52 3.56,3.17 1.32,3.9 -1.16,0.38 -1.8,-0.34 -1.95,-1.21 -0.21,-1.15 0.29,-2.03 0.63,-2.69zm1.7 -2.22c-1.86,-0.65 -3.25,-4.04 0.01,-3.36 0.64,1.27 0.41,2.03 -0.01,3.36zm0.77 0.92c0.34,-0.67 -0.02,-0.05 0.34,-0.47 0.46,-0.55 1.83,-1.35 0.92,-3.11 -1.04,-2 -5.85,-1.98 -6.24,1 -0.21,1.72 1.12,2.34 1.64,3.18 -0.73,0.82 -2.38,1.67 -1.7,3.48 0.46,1.21 2,1.83 3.73,1.71 3.49,-0.23 4.57,-3.8 1.31,-5.79z"/>
  <path class="fil0" d="M173.62 64.84c-1.71,0.53 -1.93,-0.76 -1.97,-2.43 -0.04,-1.66 -0.25,-2.86 1.44,-2.95 0.94,0.96 0.93,4.5 0.53,5.38zm-1.58 1.75c-4.71,-1.38 -3.04,4.53 1.57,2.81 2.4,-0.89 3.31,-4.45 2.39,-7.67 -0.94,-3.32 -4.99,-3.76 -6.38,-1.37 -0.7,1.22 -0.69,3.13 0.12,4.19 0.95,1.24 2.27,1.11 4.11,0.89 0.01,1.77 -0.15,4.56 -2.22,3.64 -0.24,-1.08 0.96,-0.33 0.41,-2.49z"/>
  <path class="fil0" d="M182.22 69.16c-0.9,-0.47 -0.98,-1.32 -1.05,-2.63 -0.05,-0.94 -0.41,-2.84 0.99,-2.6 0.98,0.16 1.15,1.45 1.16,2.6 0,1.38 -0.03,2.28 -1.1,2.63zm-1.02 -5.69c0.06,-2.22 -0.18,-4.23 2.18,-4.08 -0.17,1.23 -1.1,1.17 -0.66,2.23 0.27,0.64 1.34,0.9 2.12,0.46 3.73,-2.07 -6.73,-7.31 -6.11,3.08 0.21,3.47 2.93,6.09 5.84,3.72 1.52,-1.25 2.58,-6.28 -3.37,-5.41z"/>
  <path class="fil1" d="M167 102.54c0.93,2.45 3.59,-0.39 5.55,-0.89l-0.52 5.16c-2.09,0.46 -4.34,-0.86 -5.87,-1.12 0.41,0.89 1.86,1.33 3.37,2.19 1.08,0.62 2.63,1.85 3.97,1.48 0.99,-1.29 0.36,-6.76 -0.16,-8.14 1.12,0.18 3.19,0.72 4.6,-0.64 -0.81,-2.16 -3.19,-0.72 -3.59,-0.61 -4.93,1.35 -3.22,1.26 -5.64,2.13 -0.73,0.26 -1.25,0.15 -1.71,0.44z"/>
  <path class="fil0" d="M111.63 138.51c-1.58,0.77 -3.02,1.44 -2.7,3.86 0.12,0.85 0.75,1.93 1.16,2.27 2.91,2.42 5.12,-0.64 5.01,-3.12 -0.08,-1.72 -1.88,-3.78 -3.47,-3.01z"/>
  <path class="fil0" d="M152.02 69.28c0.68,0.34 4.68,0.34 5.36,0 -0.73,-1.61 -1.34,1.76 -1.34,-4.36 0,-1.9 0.03,-3.83 -0.01,-5.73 -2.32,-0.24 -1.83,0.11 -2.28,0.43 -1.09,0.76 -0.99,0.13 -1.77,0.72 0.04,0.03 0.12,0.07 0.15,0.08 0.03,0.02 0.11,0.07 0.15,0.09l0.96 0.36c0.25,1.42 0.12,3.47 0.12,4.97 0.03,4.52 -0.72,2.03 -1.34,3.44z"/>
  <path class="fil1" d="M132.49 105.98l-1.93 -0.06c-2.23,0.27 -3.44,-0.3 -5.71,-1.06l-7.36 -1.98c0.42,1.4 1.25,1.06 3.77,2.13 4.5,1.91 6.11,4.26 7.73,3.26 0.66,-0.41 0.58,-0.73 1.64,-1.14 1.31,-0.49 1.41,-0.28 1.86,-1.15z"/>
  <path class="fil0" d="M69.21 155.5c-0.29,0.21 -0.64,0.36 -0.74,1 -0.13,0.81 0.11,0.91 0.72,1.05 1.27,0.29 1.37,-0.29 3,0.45 1.13,0.51 3.64,2.01 5.02,1.43 2.47,-1.04 -1.64,-2.51 -2.6,-2.94 -1.2,-0.53 -4.09,-1.92 -5.4,-0.99z"/>
  <path class="fil1" d="M100.2 90.62c1.04,0.61 3.11,-0.42 4.28,-0.64l0.06 0.19c0.4,0.68 1.6,-0.04 2.47,-0.47 2.41,-1.19 2.63,-0.62 2.86,-1.61 -1.01,-1.2 -2.59,-0.04 -4.01,0.15l-0.23 -0.33c-0.75,-1.23 -1.31,-1.93 -3.57,-2 0.24,1.23 1.03,1.64 0.49,2.97 -0.39,0.96 -1.33,1.34 -2.35,1.74z"/>
  <path class="fil0" d="M131.2 45.05c2.29,0.33 4.23,0.37 6.51,-0.14 -0.47,-1.1 -1.33,-1.61 -2.39,-3.71l-0.85 -1.29c-1.3,2.8 -2.69,3.74 -3.27,5.14z"/>
  <path class="fil1" d="M101.27 92.9c-0.43,0.35 -2.6,2.17 -2.71,2.61l-0.03 0.37c0,0.06 0.02,0.15 0.02,0.2 0.01,0.05 0.02,0.13 0.04,0.2 0.88,0 2.53,-0.9 3.56,-1.36 1.99,-0.88 1.35,-1.36 2.71,-2.12 0.33,0.57 -0.01,0.03 0.16,0.82 0.13,0.6 -0.08,0.12 0.15,0.52l2.05 -0.23c0.22,-1.18 0.35,-1.37 -0.61,-1.75 -1.72,-0.68 -2.75,0.43 -3.6,0.91 -0.94,0.52 -1.13,0.19 -1.59,-0.07 -0.04,-0.02 -0.09,-0.08 -0.15,-0.1z"/>
  <path class="fil0" d="M48.76 96.52c1.09,0.05 2.57,-0.69 3.06,-1.23 1.37,-1.52 0.37,-4.92 -3.55,-1.49 -1.21,1.06 -0.34,2.09 0.49,2.72z"/>
  <path class="fil1" d="M74.18 107.07c0.54,-0.98 0.75,-2.51 0.16,-3.74l-1.93 -2.55c-0.59,1.33 -1.69,6.7 1.77,6.29z"/>
  <path class="fil0" d="M156.98 39.62c0.02,2.08 0.43,2.61 2.53,2.58 2.06,-0.03 2.52,-0.82 2.62,-2.77 -2.15,-0.18 -3.11,-0.01 -5.15,0.19z"/>
  <path class="fil1" d="M173.62 64.84c0.4,-0.88 0.41,-4.42 -0.53,-5.38 -1.69,0.09 -1.48,1.29 -1.44,2.95 0.04,1.67 0.26,2.96 1.97,2.43z"/>
  <path class="fil0" d="M174.79 87.58c0.19,0.73 0.6,1.01 1.43,2.61 0.23,0.43 0.08,0.24 0.35,0.55 0.65,-1.56 2.66,-3.08 3.08,-4.71 -1.36,-0.03 -3.49,1.11 -4.86,1.55z"/>
  <path class="fil1" d="M182.22 69.16c1.07,-0.35 1.1,-1.25 1.1,-2.63 -0.01,-1.15 -0.18,-2.44 -1.16,-2.6 -1.4,-0.24 -1.04,1.66 -0.99,2.6 0.07,1.31 0.15,2.16 1.05,2.63z"/>
  <path class="fil1" d="M162.26 65.17c-0.34,0.66 -0.84,1.54 -0.63,2.69 0.15,0.87 0.79,1.59 1.95,1.21 2.24,-0.73 0.05,-3.38 -1.32,-3.9z"/>
  <path class="fil3" d="M162.11 141.36l9.08 -0.02 -0.07 5.86 -9.15 0.21 0.14 -6.05zm-0.3 -0.09l-0.19 5.32c0.05,0.4 -0.18,1.08 1.32,1.15l8.43 -0.51c0.08,-1.29 0.04,-2.58 0.06,-3.87 0.03,-2.25 0.42,-2.22 -1.82,-2.19 -0.93,0.01 -7.63,-0.02 -7.8,0.1z"/>
  <path class="fil0" d="M126.58 94.59l0.52 2.36c0.81,0.46 0.61,0.13 1.15,0.92 0.33,-1.62 0.99,-3.14 0.81,-4.77 -1.12,0.32 -1.53,1.02 -2.48,1.49z"/>
  <path class="fil1" d="M169.4 98.7c0.47,1.24 0.94,0.58 2.12,0.98 0.43,0.14 -0.31,0.15 0.84,0.33 1.08,-0.32 1.83,-0.77 1.86,-2.06 -1.8,-0.7 -0.21,0.55 -4.82,0.75z"/>
  <path class="fil1" d="M163.96 62.95c0.42,-1.33 0.65,-2.09 0.01,-3.36 -3.26,-0.68 -1.87,2.71 -0.01,3.36z"/>
  <path class="fil0" d="M164.14 31.73c0.33,-0.79 0.21,-0.97 0.04,-1.79 -1.13,-0.45 -2.15,-0.45 -3.58,-0.51 0.01,1.71 0.07,1.09 1.7,1.53 0.73,0.2 1.53,0.77 1.84,0.77z"/>
  <path class="fil0" d="M155.18 31.62l3.61 -1.12 0.03 -1.01c-1.9,0.04 -4,-0.05 -3.64,2.13z"/>
  <path class="fil0" d="M174.06 89.37c-0.4,0.3 -0.88,0.57 -1.24,1.02 -0.35,0.45 -1.05,1.6 -0.41,1.31 0.69,-0.31 2.24,-0.36 2.59,-1.49 0.14,-1.11 -0.42,-1.87 -1.34,-2.12 0.19,0.79 0.32,0.59 0.4,1.28z"/>
  <path class="fil1" d="M166.8 94.01c2.28,-0.24 0.82,-2.44 -0.28,-3.29 -0.55,-0.41 -0.07,-0.12 -0.69,-0.39 0.06,1.55 0.41,2.69 0.97,3.68z"/>
  <path class="fil1" d="M119.29 96.71c-0.08,0.81 0.13,1.37 0.36,2.11 0.3,0.96 -0.15,0.54 0.53,0.86 0.8,0.36 1.9,-0.2 0.68,-2.06 -0.36,-0.55 -0.75,-0.79 -1.57,-0.91z"/>
  <path class="fil0" d="M127.18 102.38c0.64,-0.21 0.39,0.14 0.62,-0.65l0.2 -3.12 -1.05 0.93c-0.02,0.04 -0.47,2.01 0.23,2.84z"/>
  <path class="fil0" d="M156.83 33.63l1.87 0.16 -0.02 -1.58 -0.86 0.12c-1.04,0.12 -1.52,0.41 -1.96,1.17l0.97 0.13z"/>
  <path class="fil0" d="M160.55 33.82c1.14,-0.03 1.67,0.01 2.46,-0.55 -0.32,-0.55 -0.04,-0.44 -0.89,-0.75 -0.52,-0.19 -1.02,-0.25 -1.56,-0.34l-0.01 1.64z"/>
  <path class="fil0" d="M173.5 93.98c0.92,-0.52 1.65,-1.61 2.2,-2.43l-2.66 0.88c0.02,0.86 -0.08,0.94 0.46,1.55z"/>
  <path class="fil1" d="M120.67 103.33l0.81 0.05c0.1,-0.26 0.2,-0.18 0.2,-0.62 -0.01,-0.77 -0.53,-1.14 -1.18,-1.46l0.17 2.03z"/>
  <path class="fil4" d="M156.83 33.63c0.29,0.45 1.33,0.34 1.94,0.28l0.09 -1.8 -1.04 0.22 0.86 -0.12 0.02 1.58 -1.87 -0.16z"/>
 </g>
</svg>
