<svg xmlns="http://www.w3.org/2000/svg" viewBox="0 0 440 460" font-family="Helvetica, Arial, sans-serif">
  <circle cx="220" cy="210" r="180" fill="#fdf6e3" stroke="#586e75" stroke-width="6"/>
  <circle cx="220" cy="210" r="8" fill="#586e75"/>
  <g stroke="#586e75" stroke-width="4">
    <line x1="220" y1="30" x2="220" y2="54"/>
    <line x1="400" y1="210" x2="376" y2="210"/>
    <line x1="220" y1="390" x2="220" y2="366"/>
    <line x1="40" y1="210" x2="64" y2="210"/>
    <line x1="347" y1="83" x2="333" y2="97"/>
    <line x1="347" y1="337" x2="333" y2="323"/>
    <line x1="93" y1="337" x2="107" y2="323"/>
    <line x1="93" y1="83" x2="107" y2="97"/>
  </g>
  <g font-size="36" text-anchor="middle" font-weight="bold">
    <text x="220" y="72" fill="#586e75">12</text>
    <text x="370" y="222" fill="#586e75">3</text>
    <text x="220" y="372" fill="#586e75">6</text>
    <text x="70" y="222" fill="#586e75">9</text>
  </g>
  <g font-size="30" text-anchor="middle" font-weight="bold">
    <text x="295" y="92" fill="#93a1a1">1</text>
    <text x="350" y="147" fill="#93a1a1">2</text>
    <text x="350" y="297" fill="#93a1a1">4</text>
    <text x="295" y="352" fill="#93a1a1">5</text>
    <text x="145" y="352" fill="#93a1a1">7</text>
    <text x="90" y="297" fill="#93a1a1">8</text>
    <text x="90" y="147" fill="#93a1a1">10</text>
    <text x="145" y="92" fill="#93a1a1">11</text>
  </g>
  <defs>
    <marker id="arrow" markerWidth="14" markerHeight="14" refX="10" refY="6" orient="auto" markerUnits="userSpaceOnUse">
      <path d="M 0 0 L 14 6 L 0 12 Z" fill="#268bd2"/>
    </marker>
  </defs>
  <path d="M 131 55 A 175 175 0 0 1 309 55" fill="none" stroke="#268bd2" stroke-width="8" stroke-linecap="round" marker-end="url(#arrow)"/>
  <text x="220" y="34" fill="#268bd2" font-size="30" text-anchor="middle" font-weight="bold">11 点 + 2 小时 = 1 点</text>
  <text x="220" y="446" fill="#cb4b16" font-size="30" text-anchor="middle" font-weight="bold">INT_MAX + 1 = INT_MIN</text>
</svg>