<svg xmlns="http://www.w3.org/2000/svg" viewBox="0 0 440 460" font-family="Helvetica, Arial, sans-serif">
  <circle cx="220" cy="210" r="150" fill="#fdf6e3" stroke="#586e75" stroke-width="6"/>
  <circle cx="220" cy="210" r="7" fill="#586e75"/>
  <g stroke="#586e75" stroke-width="4">
    <line x1="220" y1="66" x2="220" y2="48"/>
    <line x1="364" y1="210" x2="382" y2="210"/>
    <line x1="220" y1="354" x2="220" y2="372"/>
    <line x1="76" y1="210" x2="58" y2="210"/>
    <line x1="292" y1="85" x2="301" y2="70"/>
    <line x1="345" y1="138" x2="360" y2="129"/>
    <line x1="345" y1="282" x2="360" y2="291"/>
    <line x1="292" y1="335" x2="301" y2="350"/>
    <line x1="148" y1="335" x2="139" y2="350"/>
    <line x1="95" y1="282" x2="80" y2="291"/>
    <line x1="95" y1="138" x2="80" y2="129"/>
    <line x1="148" y1="85" x2="139" y2="70"/>
  </g>
  <g font-size="34" text-anchor="middle" font-weight="bold">
    <text x="220" y="102" fill="#586e75">12</text>
    <text x="340" y="222" fill="#586e75">3</text>
    <text x="220" y="342" fill="#586e75">6</text>
    <text x="100" y="222" fill="#586e75">9</text>
  </g>
  <g font-size="28" text-anchor="middle" font-weight="bold">
    <text x="280" y="118" fill="#93a1a1">1</text>
    <text x="324" y="162" fill="#93a1a1">2</text>
    <text x="324" y="282" fill="#93a1a1">4</text>
    <text x="280" y="326" fill="#93a1a1">5</text>
    <text x="160" y="326" fill="#93a1a1">7</text>
    <text x="116" y="282" fill="#93a1a1">8</text>
    <text x="116" y="162" fill="#93a1a1">10</text>
    <text x="160" y="118" fill="#93a1a1">11</text>
  </g>
  <defs>
    <marker id="arrow" markerWidth="16" markerHeight="16" refX="11" refY="7" orient="auto" markerUnits="userSpaceOnUse">
      <path d="M 0 0 L 16 7 L 0 14 Z" fill="#268bd2"/>
    </marker>
  </defs>
  <!-- 12 -> 1 顺时针拨一格 -->
  <path d="M 220 90 A 120 120 0 0 1 280 106" fill="none" stroke="#268bd2" stroke-width="10" stroke-linecap="round" marker-end="url(#arrow)"/>
  <!-- 12 -> 11 逆时针拨一格 -->
  <path d="M 220 90 A 120 120 0 0 0 160 106" fill="none" stroke="#268bd2" stroke-width="10" stroke-linecap="round" marker-end="url(#arrow)"/>
  <text x="220" y="38" fill="#268bd2" font-size="30" text-anchor="middle" font-weight="bold">12 点 ± 1 小时 → 1 点 / 11 点</text>
  <text x="220" y="446" fill="#cb4b16" font-size="30" text-anchor="middle" font-weight="bold">INT_MAX + 1 = INT_MIN</text>
</svg>