<svg xmlns="http://www.w3.org/2000/svg" viewBox="0 0 760 330" font-family="Helvetica, Arial, sans-serif">
  <text x="380" y="34" fill="#268bd2" font-size="26" text-anchor="middle" font-weight="bold">每个区间都装同样多的 float (2²³ ≈ 840 万个), 长度却翻倍</text>
  <line x1="80" y1="121" x2="680" y2="121" stroke="#586e75" stroke-width="4"/>
  <rect x="117.5" y="95" width="37.5" height="52" fill="none" stroke="#268bd2" stroke-width="3" rx="5"/>
  <circle cx="121.7" cy="121" r="3.2" fill="#586e75"/>
  <circle cx="125.8" cy="121" r="3.2" fill="#586e75"/>
  <circle cx="130.0" cy="121" r="3.2" fill="#586e75"/>
  <circle cx="134.2" cy="121" r="3.2" fill="#586e75"/>
  <circle cx="138.3" cy="121" r="3.2" fill="#586e75"/>
  <circle cx="142.5" cy="121" r="3.2" fill="#586e75"/>
  <circle cx="146.7" cy="121" r="3.2" fill="#586e75"/>
  <circle cx="150.8" cy="121" r="3.2" fill="#586e75"/>
  <text x="136.2" y="175" fill="#586e75" font-size="21" text-anchor="middle" font-weight="bold">1 ~ 2</text>
  <rect x="155.0" y="95" width="75.0" height="52" fill="none" stroke="#268bd2" stroke-width="3" rx="5"/>
  <circle cx="163.3" cy="121" r="3.2" fill="#586e75"/>
  <circle cx="171.7" cy="121" r="3.2" fill="#586e75"/>
  <circle cx="180.0" cy="121" r="3.2" fill="#586e75"/>
  <circle cx="188.3" cy="121" r="3.2" fill="#586e75"/>
  <circle cx="196.7" cy="121" r="3.2" fill="#586e75"/>
  <circle cx="205.0" cy="121" r="3.2" fill="#586e75"/>
  <circle cx="213.3" cy="121" r="3.2" fill="#586e75"/>
  <circle cx="221.7" cy="121" r="3.2" fill="#586e75"/>
  <text x="192.5" y="175" fill="#586e75" font-size="21" text-anchor="middle" font-weight="bold">2 ~ 4</text>
  <rect x="230.0" y="95" width="150.0" height="52" fill="none" stroke="#268bd2" stroke-width="3" rx="5"/>
  <circle cx="246.7" cy="121" r="3.2" fill="#586e75"/>
  <circle cx="263.3" cy="121" r="3.2" fill="#586e75"/>
  <circle cx="280.0" cy="121" r="3.2" fill="#586e75"/>
  <circle cx="296.7" cy="121" r="3.2" fill="#586e75"/>
  <circle cx="313.3" cy="121" r="3.2" fill="#586e75"/>
  <circle cx="330.0" cy="121" r="3.2" fill="#586e75"/>
  <circle cx="346.7" cy="121" r="3.2" fill="#586e75"/>
  <circle cx="363.3" cy="121" r="3.2" fill="#586e75"/>
  <text x="305.0" y="175" fill="#586e75" font-size="21" text-anchor="middle" font-weight="bold">4 ~ 8</text>
  <rect x="380.0" y="95" width="300.0" height="52" fill="none" stroke="#268bd2" stroke-width="3" rx="5"/>
  <circle cx="413.3" cy="121" r="3.2" fill="#586e75"/>
  <circle cx="446.7" cy="121" r="3.2" fill="#586e75"/>
  <circle cx="480.0" cy="121" r="3.2" fill="#586e75"/>
  <circle cx="513.3" cy="121" r="3.2" fill="#586e75"/>
  <circle cx="546.7" cy="121" r="3.2" fill="#586e75"/>
  <circle cx="580.0" cy="121" r="3.2" fill="#586e75"/>
  <circle cx="613.3" cy="121" r="3.2" fill="#586e75"/>
  <circle cx="646.7" cy="121" r="3.2" fill="#586e75"/>
  <text x="530.0" y="175" fill="#586e75" font-size="21" text-anchor="middle" font-weight="bold">8 ~ 16</text>
  <line x1="80.0" y1="86" x2="80.0" y2="93" stroke="#586e75" stroke-width="3"/>
  <text x="80.0" y="78" fill="#586e75" font-size="20" text-anchor="middle">0</text>
  <line x1="117.5" y1="86" x2="117.5" y2="93" stroke="#586e75" stroke-width="3"/>
  <text x="117.5" y="78" fill="#586e75" font-size="20" text-anchor="middle">1</text>
  <line x1="155.0" y1="86" x2="155.0" y2="93" stroke="#586e75" stroke-width="3"/>
  <text x="155.0" y="78" fill="#586e75" font-size="20" text-anchor="middle">2</text>
  <line x1="230.0" y1="86" x2="230.0" y2="93" stroke="#586e75" stroke-width="3"/>
  <text x="230.0" y="78" fill="#586e75" font-size="20" text-anchor="middle">4</text>
  <line x1="380.0" y1="86" x2="380.0" y2="93" stroke="#586e75" stroke-width="3"/>
  <text x="380.0" y="78" fill="#586e75" font-size="20" text-anchor="middle">8</text>
  <line x1="680.0" y1="86" x2="680.0" y2="93" stroke="#586e75" stroke-width="3"/>
  <text x="680.0" y="78" fill="#586e75" font-size="20" text-anchor="middle">16</text>
  <text x="380" y="235" fill="#cb4b16" font-size="24" text-anchor="middle" font-weight="bold">区间长度 ×2 → 相邻两点间距 ×2 → 离 0 越远越稀疏</text>
  <text x="380" y="280" fill="#586e75" font-size="21" text-anchor="middle">数轴无限长, 图案有限——0.1 这类数只能就近截断</text>
</svg>